G04 DesignSpark PCB Gerber Version 9.0 Build 5115 *
%FSLAX35Y35*%
%MOIN*%
%ADD22R,0.01181X0.03150*%
%ADD71R,0.02362X0.05807*%
%ADD75R,0.03346X0.03937*%
%ADD28R,0.03937X0.04291*%
%ADD74R,0.05118X0.07087*%
%ADD26R,0.07283X0.16142*%
%ADD70R,0.07874X0.16535*%
%ADD76R,0.06000X0.06000*%
%ADD23R,0.06890X0.06890*%
%ADD25R,0.15748X0.15748*%
%ADD24R,0.21654X0.21654*%
%ADD15C,0.00500*%
%ADD122C,0.00768*%
%ADD18C,0.00827*%
%ADD81C,0.01181*%
%ADD72R,0.02362X0.00886*%
%ADD21R,0.03150X0.01181*%
%ADD19R,0.03543X0.02362*%
%ADD20R,0.05807X0.02362*%
%ADD27R,0.04291X0.03937*%
%ADD29R,0.04330X0.03940*%
%ADD73R,0.10000X0.07992*%
%ADD80C,0.01969*%
%ADD78C,0.02402*%
%ADD79C,0.03200*%
%ADD123C,0.03346*%
%ADD82C,0.05000*%
%ADD77C,0.05600*%
X0Y0D02*
D02*
D15*
X5762Y158124D02*
Y4974D01*
X286864*
Y37264*
X281043*
Y47291*
X286864*
Y57343*
X281043*
Y67370*
X286864*
Y77421*
X281043*
Y87449*
X286864*
Y97500*
X281043*
Y107528*
X286864*
Y117579*
X281043*
Y127606*
X286864*
Y137657*
X281043*
Y138996*
X270768*
Y138209*
X263614*
Y147331*
X270768*
Y146346*
X281043*
Y147685*
X286864*
Y158124*
X5762*
X127293Y40057D02*
X132872D01*
Y28179*
X129878*
G75*
G02X129674Y28169I-198J1993*
G01*
X113539*
G75*
G02X112122Y28756I-2J2002*
G01*
X110679Y30198*
G75*
G02X110152Y31132I1416J1415*
G01*
X108931*
Y32116*
X87976*
Y20744*
X64287*
Y44433*
X87976*
Y36120*
X108931*
Y37104*
X110093*
Y42803*
G75*
G02X110679Y44219I2002J0*
G01*
X120000Y53540*
Y64457*
X129319*
Y46280*
X120000*
Y47878*
X114096Y41974*
Y37104*
X115258*
Y32173*
X115931*
Y37104*
X122258*
Y32173*
X127293*
Y36427*
G75*
G02X126294Y36848I14J1431*
G01*
X123721Y39420*
G75*
G02X120565Y41982I-538J2562*
G01*
G75*
G02X125801I2618*
G01*
G75*
G02X125745Y41444I-2617J0*
G01*
X127293Y39896*
Y40057*
X276937Y39229D02*
G75*
G02Y39227I-455J-1D01*
G01*
G75*
G02Y39226I-557J0*
G01*
G75*
G02X276472Y38103I-1589*
G01*
X261117Y22749*
G75*
G02X259991Y22283I-1123J1123*
G01*
X246707*
G75*
G02X245581Y22751J1589*
G01*
X243913Y24420*
G75*
G02X243462Y25313I1121J1126*
G01*
X236991*
G75*
G02X236524Y24309I-1603J134*
G01*
X236331Y24115*
Y18720*
X235169*
Y18689*
X236331*
Y12717*
X230004*
Y18689*
X231165*
Y18720*
X230004*
Y19705*
X227681*
Y18720*
X226520*
Y18591*
X227681*
Y12618*
X221354*
Y18591*
X222516*
Y18720*
X221354*
Y24693*
X221426*
G75*
G02X221198Y25313I1364J852*
G01*
X220591*
Y26224*
X219678Y25311*
G75*
G02X218260Y24724I-1415J1416*
G01*
X215744*
X215713Y24693*
X220681*
Y18720*
X214354*
Y23785*
G75*
G02X213929Y23740I-423J1956*
G01*
X205961*
G75*
G02X204543Y24326I-2J2002*
G01*
X204004Y24866*
X199902*
G75*
G02X199898I-2J1880*
G01*
X190213*
G75*
G02X190209I-2J1880*
G01*
X184001*
G75*
G02X185421Y22494I-1270J-2372*
G01*
G75*
G02X180039I-2691*
G01*
G75*
G02X180181Y23357I2691J0*
G01*
X178673Y24866*
X174626*
G75*
G02X173817Y24709I-809J2002*
G01*
X165685*
Y23882*
X160303*
Y29854*
X160835*
Y34741*
X157090Y38486*
G75*
G02X156457Y40014I1526J1528*
G01*
Y44508*
X155508*
Y50480*
X156811*
Y51333*
G75*
G02X157397Y52748I2002J0*
G01*
X161531Y56882*
G75*
G02X162949Y57469I1415J-1416*
G01*
X180425*
X181921Y58965*
Y66472*
X189957*
Y58437*
X187056*
X182670Y54051*
G75*
G02X182531Y53925I-1415J1417*
G01*
X187315*
Y48531*
X187988*
Y53925*
X194315*
Y48531*
X202039*
G75*
G02X201791Y49659I2443J1128*
G01*
G75*
G02X207173I2691*
G01*
G75*
G02X206926Y48531I-2691J0*
G01*
X213207*
Y59142*
X220591*
Y65256*
X211261*
X209957Y63997*
Y58437*
X201921*
Y65924*
X199957Y64054*
Y58437*
X191921*
Y66472*
X198346*
X200791Y68799*
X163933*
X153554Y58420*
G75*
G02X154246Y56648I-1926J-1772*
G01*
G75*
G02X149010I-2618*
G01*
G75*
G02X150240Y58867I2618*
G01*
G75*
G02X150618Y59531I1387J-350*
G01*
X162327Y71241*
G75*
G02X163341Y71661I1014J-1010*
G01*
X192327*
G75*
G02X191855Y71976I542J1324*
G01*
X175933Y87898*
X166925*
Y87720*
X162890*
Y86835*
X162004*
Y85578*
G75*
G02Y84827I-1420J-376*
G01*
Y82799*
X161827*
Y80307*
X162422Y79713*
X166547*
Y73740*
X163465*
X159167Y69401*
G75*
G02X157632Y68760I-1536J1518*
G01*
X138195*
G75*
G02X136667Y69393J2159*
G01*
X84922Y121138*
X64287*
Y144827*
X87976*
Y124192*
X139089Y73079*
X140456*
X134968Y78567*
G75*
G02X134547Y79581I1010J1014*
G01*
Y81185*
X132992*
Y87512*
X138965*
Y81185*
X137409*
Y80174*
X142602Y74981*
Y80795*
X148929*
Y74909*
X149602*
Y80795*
X153728*
X155028Y82095*
Y82799*
X154850*
Y86835*
X153965*
Y87720*
X149929*
Y87898*
X146937*
Y84531*
X140965*
Y89760*
X138965*
Y88185*
X132992*
Y94512*
X138965*
Y92937*
X140965*
Y97858*
X142520*
Y100740*
X141677Y101583*
G75*
G02X139272Y103793I-187J2211*
G01*
G75*
G02X143709I2219*
G01*
G75*
G02X143701Y103607I-2217*
G01*
X144961Y102346*
G75*
G02X145382Y101333I-1010J-1014*
G01*
Y97858*
X146937*
Y92937*
X148551*
X148354Y93134*
G75*
G02X147933Y94148I1010J1014*
G01*
Y101822*
X130500Y119256*
Y116949*
X120591*
Y135520*
X130500*
Y123304*
X150374Y103429*
G75*
G02X150795Y102415I-1010J-1014*
G01*
Y94874*
X153965*
Y95760*
X154850*
Y99795*
X155028*
Y116949*
X152087*
Y135520*
X161996*
Y116949*
X157890*
Y99795*
X158965*
Y100061*
G75*
G02X159385Y101074I1431J0*
G01*
X162508Y104197*
G75*
G02X162500Y104384I2209J187*
G01*
G75*
G02X166937I2219*
G01*
G75*
G02X164532Y102173I-2219*
G01*
X162004Y99645*
Y95760*
X162890*
Y94874*
X166925*
Y94854*
X178098*
G75*
G02X179224Y94389I3J-1589*
G01*
X194806Y78807*
X196344*
X198858Y81321*
Y94281*
G75*
G02X198327Y95722I1687J1441*
G01*
G75*
G02X202764I2219*
G01*
G75*
G02X202035Y94079I-2219*
G01*
Y80666*
G75*
G02Y80664I-455J-1*
G01*
G75*
G02Y80663I-557J0*
G01*
G75*
G02X201570Y79540I-1589*
G01*
X198711Y76681*
X202019*
G75*
G02X203033Y76262I3J-1431*
G01*
X203894Y75402*
X205653*
X203669Y77386*
G75*
G02X203248Y78400I1010J1014*
G01*
Y98870*
X199437Y102681*
G75*
G02X199016Y103695I1010J1014*
G01*
Y113636*
G75*
G02X199382Y114592I1431*
G01*
X200514Y115855*
X200371Y115997*
G75*
G02X197264Y118656I-417J2659*
G01*
G75*
G02X202646I2691*
G01*
G75*
G02X202615Y118247I-2691J0*
G01*
X202637Y118225*
X203613Y119315*
G75*
G02X203668Y119373I1064J-944*
G01*
X218209Y133914*
Y138209*
X216370*
Y147331*
X223524*
Y138209*
X221071*
Y133321*
G75*
G02X220650Y132307I-1431J0*
G01*
X205719Y117376*
X204116Y115587*
G75*
G02X203196Y114560I-1526J441*
G01*
X201878Y113089*
Y110087*
G75*
G02X205315Y110761I2112J-1667*
G01*
Y111372*
G75*
G02X205736Y112385I1431J0*
G01*
X226870Y133520*
Y138209*
X224244*
Y147331*
X231398*
Y138209*
X229732*
Y132927*
G75*
G02X229311Y131914I-1431J0*
G01*
X208177Y110779*
Y80272*
X208815Y79634*
X228673*
X227685Y80622*
G75*
G02X227359Y81122I1010J1014*
G01*
X224244*
Y90244*
X231398*
Y81122*
X231233*
X234646Y77709*
Y81122*
X232118*
Y90244*
X239272*
Y81122*
X237508*
Y77713*
X239906Y75315*
X244433*
X242559Y77189*
G75*
G02X242138Y78203I1010J1014*
G01*
Y81122*
X239992*
Y90244*
X247146*
Y81122*
X245000*
Y78796*
X246611Y77185*
X250830*
X250433Y77583*
G75*
G02X250012Y78596I1010J1014*
G01*
Y81122*
X247866*
Y90244*
X255020*
Y81122*
X252874*
Y79189*
X253107Y78957*
X265002*
G75*
G02X266015Y78536I0J-1431*
G01*
X269272Y75279*
G75*
G02X269693Y74266I-1010J-1014*
G01*
Y45663*
G75*
G02X271210Y46364I1620J-1516*
G01*
X271752Y46906*
Y90110*
X270819Y91043*
X222004*
X221378Y90417*
Y90244*
X223524*
Y81122*
X216370*
Y90244*
X218516*
Y91007*
G75*
G02Y91009I660J1*
G01*
G75*
G02Y91010I663J0*
G01*
G75*
G02X218935Y92022I1431J0*
G01*
X220400Y93486*
G75*
G02X221415Y93906I1012J-1011*
G01*
X271197*
X270963Y94134*
X213019*
G75*
G02X209252Y95722I-1548J1589*
G01*
G75*
G02X213019Y97311I2219*
G01*
X271608*
G75*
G02X272718Y96859J-1589*
G01*
X276455Y93220*
G75*
G02X276937Y92081I-1107J-1140*
G01*
Y39229*
X208496Y90244D02*
X215650D01*
Y81122*
X208496*
Y90244*
X255740D02*
X262894D01*
Y81122*
X255740*
Y90244*
X263614D02*
X270768D01*
Y81122*
X263614*
Y90244*
X237004Y18689D02*
X243331D01*
Y12717*
X237004*
Y18689*
Y24693D02*
X243331D01*
Y18720*
X237004*
Y24693*
X214354Y18591D02*
X220681D01*
Y12618*
X214354*
Y18591*
X171921Y66472D02*
X179957D01*
Y58437*
X171921*
Y66472*
X167220Y79713D02*
X173547D01*
Y73740*
X167220*
Y79713*
X148508Y50480D02*
X154835D01*
Y44508*
X148508*
Y50480*
X156509Y29854D02*
X159386D01*
Y23882*
X154004*
Y26244*
X152350*
Y25083*
X146378*
Y28376*
X143896*
Y28179*
X138317*
Y32577*
X143896*
Y32380*
X146378*
Y38221*
G75*
G02X146071Y37793I-1443J710*
G01*
X145000Y36722*
G75*
G02X143896Y36250I-1138J1136*
G01*
Y35659*
X138317*
Y40057*
X143327*
Y46280*
X134370*
Y64457*
X143689*
Y52983*
X146071Y50601*
G75*
G02X146543Y49463I-1136J-1138*
G01*
Y38931*
G75*
G02X146456Y38409I-1608*
G01*
X152350*
Y32083*
X148282*
G75*
G02X148648Y31794I-1049J-1706*
G01*
X149032Y31409*
X152350*
Y30248*
X155315*
G75*
G02X156509Y29854I2J-2002*
G01*
X67240Y91677D02*
X85024D01*
Y73894*
X67240*
Y91677*
X237488Y147331D02*
X239272D01*
Y138209*
X232118*
Y147331*
X233015*
X232787Y147559*
X204721*
X199047Y141885*
Y134437*
X200209*
Y128465*
X196890*
X194969Y126543*
Y91690*
G75*
G02X196784Y88439I-2002J-3251*
G01*
G75*
G02X189149I-3818*
G01*
G75*
G02X190965Y91690I3818*
G01*
Y127372*
G75*
G02X191551Y128788I2002J0*
G01*
X193882Y131119*
Y134437*
X195043*
Y142715*
G75*
G02X195630Y144130I2002J0*
G01*
X202476Y150977*
G75*
G02X203894Y151563I1415J-1416*
G01*
X233614*
G75*
G02X235032Y150977I2J-2002*
G01*
X236902Y149107*
G75*
G02X237488Y147691I-1416J-1415*
G01*
Y147331*
X208496D02*
X215650D01*
Y138209*
X208496*
Y147331*
X200882Y134437D02*
X207209D01*
Y128465*
X200882*
Y134437*
X239992Y147331D02*
X247146D01*
Y138209*
X239992*
Y147331*
X247866D02*
X255020D01*
Y138209*
X247866*
Y147331*
X255740D02*
X262894D01*
Y138209*
X255740*
Y147331*
X6012Y15703D02*
G36*
Y5224D01*
X286614*
Y15703*
X243331*
Y12717*
X237004*
Y15703*
X236331*
Y12717*
X230004*
Y15703*
X227681*
Y12618*
X221354*
Y15703*
X220681*
Y12618*
X214354*
Y15703*
X6012*
G37*
Y21707D02*
G36*
Y15703D01*
X214354*
Y18591*
X220681*
Y15703*
X221354*
Y18591*
X222516*
Y18720*
X221354*
Y21707*
X220681*
Y18720*
X214354*
Y21707*
X185304*
G75*
G02X180157I-2573J787*
G01*
X87976*
Y20744*
X64287*
Y21707*
X6012*
G37*
X226520Y18720D02*
G36*
Y18591D01*
X227681*
Y15703*
X230004*
Y18689*
X231165*
Y18720*
X230004*
Y19705*
X227681*
Y18720*
X226520*
G37*
X235169D02*
G36*
Y18689D01*
X236331*
Y15703*
X237004*
Y18689*
X243331*
Y15703*
X286614*
Y21707*
X243331*
Y18720*
X237004*
Y21707*
X236331*
Y18720*
X235169*
G37*
X6012Y42600D02*
G36*
Y21707D01*
X64287*
Y42600*
X6012*
G37*
X87976Y32116D02*
G36*
Y21707D01*
X180157*
G75*
G02X180039Y22494I2573J787*
G01*
G75*
G02X180181Y23357I2699J-1*
G01*
X178673Y24866*
X174626*
G75*
G02X173817Y24709I-810J2004*
G01*
X165685*
Y23882*
X160303*
Y29854*
X160835*
Y34741*
X157090Y38486*
G75*
G02X156457Y40013I1524J1527*
G01*
G75*
G02Y40014I2820J0*
G01*
Y42600*
X146543*
Y38931*
G75*
G02X146456Y38409I-1616J2*
G01*
X152350*
Y32083*
X148282*
G75*
G02X148648Y31794I-1064J-1724*
G01*
X149032Y31409*
X152350*
Y30248*
X155315*
G75*
G02X156509Y29854I1J-2004*
G01*
X159386*
Y23882*
X154004*
Y26244*
X152350*
Y25083*
X146378*
Y28376*
X143896*
Y28179*
X138317*
Y32577*
X143896*
Y32380*
X146378*
Y38221*
G75*
G02X146071Y37793I-1443J710*
G01*
X145000Y36722*
G75*
G02X143896Y36250I-1138J1135*
G01*
Y35659*
X138317*
Y40057*
X143327*
Y42600*
X125727*
G75*
G02X125801Y41982I-2544J-618*
G01*
G75*
G02X125745Y41444I-2642J3*
G01*
X127293Y39896*
Y40057*
X132872*
Y28179*
X129878*
G75*
G02X129674Y28169I-200J2015*
G01*
X113539*
G75*
G02X112122Y28756I-2J2002*
G01*
X110679Y30198*
G75*
G02X110152Y31132I1416J1415*
G01*
X108931*
Y32116*
X87976*
G37*
Y42600D02*
G36*
Y36120D01*
X108931*
Y37104*
X110093*
Y42600*
X87976*
G37*
X114096Y41974D02*
G36*
Y37104D01*
X115258*
Y32173*
X115931*
Y37104*
X122258*
Y32173*
X127293*
Y36427*
G75*
G02X126294Y36848I15J1432*
G01*
X123721Y39420*
G75*
G02X120565Y41982I-538J2562*
G01*
G75*
G02X120639Y42600I2618*
G01*
X114723*
X114096Y41974*
G37*
X185421Y22494D02*
G36*
G75*
G02X185304Y21707I-2691J0D01*
G01*
X214354*
Y23785*
G75*
G02X213929Y23740I-426J1986*
G01*
X205961*
G75*
G02X204543Y24326I-2J2002*
G01*
X204004Y24866*
X199902*
X199898*
X190213*
X190209*
X184001*
G75*
G02X185421Y22494I-1271J-2372*
G01*
G37*
X215744Y24724D02*
G36*
X215713Y24693D01*
X220681*
Y21707*
X221354*
Y24693*
X221426*
G75*
G02X221198Y25313I1356J850*
G01*
X220591*
Y26224*
X219678Y25311*
G75*
G02X218260Y24724I-1415J1416*
G01*
X215744*
G37*
X236331Y24115D02*
G36*
Y21707D01*
X237004*
Y24693*
X243331*
Y21707*
X286614*
Y37264*
X281043*
Y42600*
X276937*
Y39229*
Y39227*
Y39226*
Y39226*
G75*
G02X276472Y38103I-1587*
G01*
X261117Y22749*
G75*
G02X259991Y22283I-1123J1123*
G01*
X246707*
G75*
G02X245581Y22751I0J1589*
G01*
X243913Y24420*
G75*
G02X243462Y25313I1120J1125*
G01*
X236991*
G75*
G02X236524Y24309I-1602J133*
G01*
X236331Y24115*
G37*
X6012Y47494D02*
G36*
Y42600D01*
X64287*
Y44433*
X87976*
Y42600*
X110093*
Y42803*
G75*
G02X110679Y44219I2003*
G01*
X113954Y47494*
X6012*
G37*
X119617D02*
G36*
X114723Y42600D01*
X120639*
G75*
G02X125727I2544J-618*
G01*
X143327*
Y46280*
X134370*
Y47494*
X129319*
Y46280*
X120000*
Y47494*
X119617*
G37*
X146543D02*
G36*
Y42600D01*
X156457*
Y44508*
X155508*
Y47494*
X154835*
Y44508*
X148508*
Y47494*
X146543*
G37*
X269693D02*
G36*
Y45663D01*
G75*
G02X271210Y46364I1620J-1517*
G01*
X271752Y46906*
Y47494*
X269693*
G37*
X276937D02*
G36*
Y42600D01*
X281043*
Y47291*
X286614*
Y47494*
X276937*
G37*
X6012Y62455D02*
G36*
Y47494D01*
X113954*
X120000Y53540*
Y62455*
X6012*
G37*
X119617Y47494D02*
G36*
X120000D01*
Y47878*
X119617Y47494*
G37*
X129319Y62455D02*
G36*
Y47494D01*
X134370*
Y62455*
X129319*
G37*
X143689D02*
G36*
Y52983D01*
X146071Y50601*
G75*
G02X146543Y49463I-1137J-1139*
G01*
Y47494*
X148508*
Y50480*
X154835*
Y47494*
X155508*
Y50480*
X156811*
Y51333*
G75*
G02X157397Y52748I2003*
G01*
X161531Y56882*
G75*
G02X162949Y57469I1415J-1416*
G01*
X180425*
X181921Y58965*
Y62455*
X179957*
Y58437*
X171921*
Y62455*
X157589*
X153554Y58420*
G75*
G02X154246Y56648I-1929J-1774*
G01*
G75*
G02X149010I-2618*
G01*
Y56648*
G75*
G02X150240Y58867I2617*
G01*
G75*
G02X150618Y59531I1389J-350*
G01*
X153541Y62455*
X143689*
G37*
X182670Y54051D02*
G36*
G75*
G02X182531Y53925I-1378J1378D01*
G01*
X187315*
Y48531*
X187988*
Y53925*
X194315*
Y48531*
X202039*
G75*
G02X201791Y49659I2442J1127*
G01*
G75*
G02X207173Y49659I2691J1*
G01*
G75*
G02X206926Y48531I-2689J-1*
G01*
X213207*
Y59142*
X220591*
Y62455*
X209957*
Y58437*
X201921*
Y62455*
X199957*
Y58437*
X191921*
Y62455*
X189957*
Y58437*
X187056*
X182670Y54051*
G37*
X269693Y62455D02*
G36*
Y47494D01*
X271752*
Y62455*
X269693*
G37*
X276937D02*
G36*
Y47494D01*
X286614*
Y57343*
X281043*
Y62455*
X276937*
G37*
X6012Y76726D02*
G36*
Y62455D01*
X120000*
Y64457*
X129319*
Y62455*
X134370*
Y64457*
X143689*
Y62455*
X153541*
X162327Y71241*
G75*
G02X163341Y71661I1013J-1009*
G01*
X192327*
G75*
G02X191855Y71976I540J1322*
G01*
X187104Y76726*
X173547*
Y73740*
X167220*
Y76726*
X166547*
Y73740*
X163465*
X159167Y69401*
G75*
G02X157632Y68760I-1536J1520*
G01*
X138195*
G75*
G02X136667Y69393I-1J2158*
G01*
X129334Y76726*
X85024*
Y73894*
X67240*
Y76726*
X6012*
G37*
X136809D02*
G36*
X135442D01*
X139089Y73079*
X140456*
X136809Y76726*
G37*
X140857D02*
G36*
X142602Y74981D01*
Y76726*
X140857*
G37*
X148929D02*
G36*
Y74909D01*
X149602*
Y76726*
X148929*
G37*
X163933Y68799D02*
G36*
X157589Y62455D01*
X171921*
Y66472*
X179957*
Y62455*
X181921*
Y66472*
X189957*
Y62455*
X191921*
Y66472*
X198346*
X200791Y68799*
X163933*
G37*
X198756Y76726D02*
G36*
X198711Y76681D01*
X202019*
G75*
G02X203033Y76262I4J-1430*
G01*
X203894Y75402*
X205653*
X204329Y76726*
X198756*
G37*
X199957Y64054D02*
G36*
Y62455D01*
X201921*
Y65924*
X199957Y64054*
G37*
X209957Y63997D02*
G36*
Y62455D01*
X220591*
Y65256*
X211261*
X209957Y63997*
G37*
X238494Y76726D02*
G36*
X239906Y75315D01*
X244433*
X243022Y76726*
X238494*
G37*
X267825D02*
G36*
X269272Y75279D01*
G75*
G02X269693Y74266I-1009J-1013*
G01*
Y62455*
X271752*
Y76726*
X267825*
G37*
X276937D02*
G36*
Y62455D01*
X281043*
Y67370*
X286614*
Y76726*
X276937*
G37*
X6012Y85683D02*
G36*
Y76726D01*
X67240*
Y85683*
X6012*
G37*
X85024D02*
G36*
Y76726D01*
X129334*
X120377Y85683*
X85024*
G37*
X132992Y81185D02*
G36*
Y85683D01*
X126485*
X135442Y76726*
X136809*
X134968Y78567*
G75*
G02X134547Y79581I1009J1013*
G01*
Y81185*
X132992*
G37*
X137409D02*
G36*
Y80174D01*
X140857Y76726*
X142602*
Y80795*
X148929*
Y76726*
X149602*
Y80795*
X153728*
X155028Y82095*
Y82799*
X154850*
Y85683*
X146937*
Y84531*
X140965*
Y85683*
X138965*
Y81185*
X137409*
G37*
X161827Y82799D02*
G36*
Y80307D01*
X162422Y79713*
X166547*
Y76726*
X167220*
Y79713*
X173547*
Y76726*
X187104*
X178147Y85683*
X162004*
Y85578*
G75*
G02X162053Y85203I-1420J-376*
G01*
G75*
G02X162004Y84827I-1469*
G01*
Y82799*
X161827*
G37*
X190324Y85683D02*
G36*
X187930D01*
X194806Y78807*
X196344*
X198858Y81321*
Y85683*
X195609*
G75*
G02X190324I-2642J2756*
G01*
G37*
X201570Y79540D02*
G36*
X198756Y76726D01*
X204329*
X203669Y77386*
G75*
G02X203248Y78400I1009J1013*
G01*
Y85683*
X202035*
Y80666*
Y80664*
Y80663*
Y80663*
G75*
G02X201570Y79540I-1587*
G01*
G37*
X208177Y85683D02*
G36*
Y80272D01*
X208815Y79634*
X228673*
X227685Y80622*
G75*
G02X227359Y81122I1015J1017*
G01*
X224244*
Y85683*
X223524*
Y81122*
X216370*
Y85683*
X215650*
Y81122*
X208496*
Y85683*
X208177*
G37*
X231398Y81122D02*
G36*
X231233D01*
X234646Y77709*
Y81122*
X232118*
Y85683*
X231398*
Y81122*
G37*
X237508D02*
G36*
Y77713D01*
X238494Y76726*
X243022*
X242559Y77189*
G75*
G02X242138Y78203I1009J1013*
G01*
Y81122*
X239992*
Y85683*
X239272*
Y81122*
X237508*
G37*
X245000D02*
G36*
Y78796D01*
X246611Y77185*
X250830*
X250433Y77583*
G75*
G02X250012Y78596I1009J1013*
G01*
Y81122*
X247866*
Y85683*
X247146*
Y81122*
X245000*
G37*
X252874D02*
G36*
Y79189D01*
X253107Y78957*
X265002*
G75*
G02X266015Y78536J-1430*
G01*
X267825Y76726*
X271752*
Y85683*
X270768*
Y81122*
X263614*
Y85683*
X262894*
Y81122*
X255740*
Y85683*
X255020*
Y81122*
X252874*
G37*
X276937Y85683D02*
G36*
Y76726D01*
X286614*
Y77421*
X281043*
Y85683*
X276937*
G37*
X6012Y131451D02*
G36*
Y85683D01*
X67240*
Y91677*
X85024*
Y85683*
X120377*
X84922Y121138*
X64287*
Y131451*
X6012*
G37*
X87976D02*
G36*
Y124192D01*
X126485Y85683*
X132992*
Y87512*
X138965*
Y85683*
X140965*
Y89760*
X138965*
Y88185*
X132992*
Y94512*
X138965*
Y92937*
X140965*
Y97858*
X142520*
Y100740*
X141677Y101583*
G75*
G02X139272Y103793I-187J2211*
G01*
G75*
G02X143709I2219*
G01*
G75*
G02X143701Y103607I-2219*
G01*
X144961Y102346*
G75*
G02X145382Y101333I-1009J-1013*
G01*
Y97858*
X146937*
Y92937*
X148551*
X148354Y93134*
G75*
G02X147933Y94148I1009J1013*
G01*
Y101822*
X130500Y119256*
Y116949*
X120591*
Y131451*
X87976*
G37*
X130500D02*
G36*
Y123304D01*
X150374Y103429*
G75*
G02X150795Y102415I-1009J-1013*
G01*
Y94874*
X153965*
Y95760*
X154850*
Y99795*
X155028*
Y116949*
X152087*
Y131451*
X130500*
G37*
X146937Y87898D02*
G36*
Y85683D01*
X154850*
Y86835*
X153965*
Y87720*
X149929*
Y87898*
X146937*
G37*
X157890Y116949D02*
G36*
Y99795D01*
X158965*
Y100061*
G75*
G02X159385Y101074I1430*
G01*
X162508Y104197*
G75*
G02X162500Y104384I2211J187*
G01*
G75*
G02X166937I2219*
G01*
G75*
G02X164532Y102173I-2219*
G01*
X162004Y99645*
Y95760*
X162890*
Y94874*
X166925*
Y94854*
X178098*
G75*
G02X179224Y94389I3J-1589*
G01*
X187930Y85683*
X190324*
G75*
G02X189149Y88439I2642J2756*
G01*
Y88439*
G75*
G02X190965Y91690I3817*
G01*
Y127372*
G75*
G02X191551Y128788I2003*
G01*
X193882Y131119*
Y131451*
X161996*
Y116949*
X157890*
G37*
X162004Y86835D02*
G36*
Y85683D01*
X178147*
X175933Y87898*
X166925*
Y87720*
X162890*
Y86835*
X162004*
G37*
X194969Y126543D02*
G36*
Y91690D01*
G75*
G02X196784Y88439I-2002J-3250*
G01*
Y88439*
G75*
G02X195609Y85683I-3818*
G01*
X198858*
Y94281*
G75*
G02X198327Y95722I1685J1440*
G01*
G75*
G02X202764Y95722I2219J1*
G01*
G75*
G02X202035Y94079I-2219*
G01*
Y85683*
X203248*
Y98870*
X199437Y102681*
G75*
G02X199016Y103695I1009J1013*
G01*
Y113636*
G75*
G02X199382Y114592I1431J0*
G01*
X200514Y115855*
X200371Y115997*
G75*
G02X197264Y118656I-417J2659*
G01*
G75*
G02X202646I2691*
G01*
G75*
G02X202615Y118247I-2726J2*
G01*
X202637Y118225*
X203613Y119315*
G75*
G02X203668Y119373I859J-752*
G01*
X215746Y131451*
X207209*
Y128465*
X200882*
Y131451*
X200209*
Y128465*
X196890*
X194969Y126543*
G37*
X201878Y113089D02*
G36*
Y110087D01*
G75*
G02X205315Y110761I2112J-1667*
G01*
Y111372*
G75*
G02X205736Y112385I1430*
G01*
X224801Y131451*
X219793*
X205719Y117376*
X204116Y115587*
G75*
G02X203196Y114560I-1528J443*
G01*
X201878Y113089*
G37*
X208177Y110779D02*
G36*
Y85683D01*
X208496*
Y90244*
X215650*
Y85683*
X216370*
Y90244*
X218516*
Y91007*
Y91009*
Y91010*
G75*
G02X218935Y92022I1431J0*
G01*
X220400Y93486*
G75*
G02X221415Y93906I1011J-1011*
G01*
X271197*
X270963Y94134*
X213019*
G75*
G02X209252Y95722I-1548J1589*
G01*
G75*
G02X213019Y97311I2219*
G01*
X271608*
G75*
G02X272718Y96859J-1589*
G01*
X276455Y93220*
G75*
G02X276937Y92081I-1108J-1140*
G01*
Y85683*
X281043*
Y87449*
X286614*
Y97500*
X281043*
Y107528*
X286614*
Y117579*
X281043*
Y127606*
X286614*
Y131451*
X228848*
X208177Y110779*
G37*
X221378Y90417D02*
G36*
Y90244D01*
X223524*
Y85683*
X224244*
Y90244*
X231398*
Y85683*
X232118*
Y90244*
X239272*
Y85683*
X239992*
Y90244*
X247146*
Y85683*
X247866*
Y90244*
X255020*
Y85683*
X255740*
Y90244*
X262894*
Y85683*
X263614*
Y90244*
X270768*
Y85683*
X271752*
Y90110*
X270819Y91043*
X222004*
X221378Y90417*
G37*
X6012Y142770D02*
G36*
Y131451D01*
X64287*
Y142770*
X6012*
G37*
X87976D02*
G36*
Y131451D01*
X120591*
Y135520*
X130500*
Y131451*
X152087*
Y135520*
X161996*
Y131451*
X193882*
Y134437*
X195043*
Y142715*
G75*
G02X195044Y142770I2004J-1*
G01*
X87976*
G37*
X199047Y141885D02*
G36*
Y134437D01*
X200209*
Y131451*
X200882*
Y134437*
X207209*
Y131451*
X215746*
X218209Y133914*
Y138209*
X216370*
Y142770*
X215650*
Y138209*
X208496*
Y142770*
X199931*
X199047Y141885*
G37*
X220650Y132307D02*
G36*
X219793Y131451D01*
X224801*
X226870Y133520*
Y138209*
X224244*
Y142770*
X223524*
Y138209*
X221071*
Y133321*
G75*
G02X220650Y132307I-1430*
G01*
G37*
X229311Y131914D02*
G36*
X228848Y131451D01*
X286614*
Y137657*
X281043*
Y138996*
X270768*
Y138209*
X263614*
Y142770*
X262894*
Y138209*
X255740*
Y142770*
X255020*
Y138209*
X247866*
Y142770*
X247146*
Y138209*
X239992*
Y142770*
X239272*
Y138209*
X232118*
Y142770*
X231398*
Y138209*
X229732*
Y132927*
G75*
G02X229311Y131914I-1430*
G01*
G37*
X6012Y157874D02*
G36*
Y142770D01*
X64287*
Y144827*
X87976*
Y142770*
X195044*
G75*
G02X195630Y144130I2002J-55*
G01*
X202476Y150977*
G75*
G02X203894Y151563I1415J-1416*
G01*
X233614*
G75*
G02X235032Y150977I2J-2002*
G01*
X236902Y149107*
G75*
G02X237488Y147691I-1417J-1416*
G01*
Y147331*
X239272*
Y142770*
X239992*
Y147331*
X247146*
Y142770*
X247866*
Y147331*
X255020*
Y142770*
X255740*
Y147331*
X262894*
Y142770*
X263614*
Y147331*
X270768*
Y146346*
X281043*
Y147685*
X286614*
Y157874*
X6012*
G37*
X204721Y147559D02*
G36*
X199931Y142770D01*
X208496*
Y147331*
X215650*
Y142770*
X216370*
Y147331*
X223524*
Y142770*
X224244*
Y147331*
X231398*
Y142770*
X232118*
Y147331*
X233015*
X232787Y147559*
X204721*
G37*
X164918Y42520D02*
X164764Y42366D01*
G75*
G02X164772Y42179I-2209J-187*
G01*
G75*
G02X161400Y40284I-2219*
G01*
X164520Y37164*
G75*
G02X165154Y35636I-1526J-1528*
G01*
Y29854*
X165685*
Y29028*
X172922*
X175249Y31354*
X174626*
Y37327*
X175787*
Y37526*
G75*
G02X176374Y38941I2002J0*
G01*
X178092Y40659*
X176261Y42490*
X172618*
Y51711*
X177016*
Y50106*
X178004*
X179847Y51949*
G75*
G02X180860Y52370I1014J-1010*
G01*
X180988*
Y53465*
X163776*
X160815Y50504*
Y50480*
X161835*
Y48531*
X165138*
Y51711*
X169535*
Y42490*
X165138*
Y42520*
X164918*
X167626Y37327D02*
X173953D01*
Y31354*
X167626*
Y37327*
X165154Y34341D02*
G36*
Y29854D01*
X165685*
Y29278*
X173172*
X175249Y31354*
X174626*
Y34341*
X173953*
Y31354*
X167626*
Y34341*
X165154*
G37*
X161065Y50754D02*
G36*
Y50480D01*
X161835*
Y48531*
X165138*
Y51711*
X169535*
Y42490*
X165138*
Y42520*
X164918*
X164764Y42366*
G75*
G02X164772Y42179I-2211J-187*
G01*
G75*
G02X161400Y40284I-2219*
G01*
X164520Y37164*
G75*
G02X165154Y35637I-1524J-1527*
G01*
G75*
G02Y35636I-2820J0*
G01*
Y34341*
X167626*
Y37327*
X173953*
Y34341*
X174626*
Y37327*
X175787*
Y37526*
G75*
G02X176374Y38941I2003*
G01*
X178092Y40659*
X176261Y42490*
X172618*
Y51711*
X177016*
Y50106*
X178004*
X179847Y51949*
G75*
G02X180738Y52365I1013J-1009*
G01*
Y53215*
X163526*
X161065Y50754*
G37*
X181536Y38441D02*
X180422Y37327D01*
X180953*
Y31354*
X179870*
Y30762*
G75*
G02X179237Y29234I-2159*
G01*
X178873Y28870*
X189381*
X192837Y32325*
Y34470*
X191763Y33396*
G75*
G02X191937Y32533I-2044J-862*
G01*
G75*
G02X187500I-2219*
G01*
G75*
G02X188923Y34604I2219*
G01*
X192837Y38518*
Y42663*
X199199*
Y41346*
X200120*
Y43336*
X199362Y44094*
X191854*
Y38441*
X185528*
Y44094*
X184854*
Y38441*
X181536*
G36*
X180422Y37327*
X180953*
Y31354*
X179870*
Y30762*
G75*
G02X179237Y29234I-2159*
G01*
X178873Y28870*
X189381*
X192837Y32325*
Y34470*
X191763Y33396*
G75*
G02X191937Y32533I-2044J-862*
G01*
G75*
G02X187500I-2219*
G01*
G75*
G02X188923Y34604I2219*
G01*
X192837Y38518*
Y42663*
X199199*
Y41346*
X200120*
Y43336*
X199362Y44094*
X191854*
Y38441*
X185528*
Y44094*
X184854*
Y38441*
X181536*
G37*
X213470Y32697D02*
Y28113D01*
X213500Y28142*
G75*
G02X214917Y28728I1415J-1416*
G01*
X217433*
X219011Y30307*
G75*
G02X220429Y30894I1415J-1416*
G01*
X220591*
Y32697*
X213470*
G36*
Y28113*
X213500Y28142*
G75*
G02X214917Y28728I1415J-1416*
G01*
X217433*
X219011Y30307*
G75*
G02X220429Y30894I1415J-1416*
G01*
X220591*
Y32697*
X213470*
G37*
X221049Y58683D02*
Y33156D01*
X233780*
Y47297*
G75*
G02X234252Y48435I1608*
G01*
X243228Y57412*
Y58683*
X221049*
G36*
Y33156*
X233780*
Y47297*
G75*
G02X234252Y48435I1608*
G01*
X243228Y57412*
Y58683*
X221049*
G37*
X236996Y46631D02*
Y33156D01*
X246577*
Y58683*
X246445*
Y56746*
G75*
G02X245973Y55608I-1608*
G01*
X236996Y46631*
G36*
Y33156*
X246577*
Y58683*
X246445*
Y56746*
G75*
G02X245973Y55608I-1608*
G01*
X236996Y46631*
G37*
X247035Y65965D02*
Y59142D01*
X254419*
Y48925*
X257630*
X260531Y51827*
Y54217*
X254843*
Y60543*
X260531*
Y61217*
X254843*
Y64938*
X253816Y65965*
X247035*
G36*
Y59142*
X254419*
Y48925*
X257630*
X260531Y51827*
Y54217*
X254843*
Y60543*
X260531*
Y61217*
X254843*
Y64938*
X253816Y65965*
X247035*
G37*
X259389Y70079D02*
X239827D01*
X242697Y67208*
G75*
G02X243080Y66526I-1010J-1014*
G01*
X243234*
G75*
G02X243700Y67530I1603J-134*
G01*
X244880Y68709*
G75*
G02X246018Y69181I1138J-1136*
G01*
X254482*
G75*
G02X255620Y68709J-1608*
G01*
X256786Y67543*
X260531*
Y68937*
X259389Y70079*
G36*
X239827*
X242697Y67208*
G75*
G02X243080Y66526I-1010J-1014*
G01*
X243234*
G75*
G02X243700Y67530I1603J-134*
G01*
X244880Y68709*
G75*
G02X246018Y69181I1138J-1136*
G01*
X254482*
G75*
G02X255620Y68709J-1608*
G01*
X256786Y67543*
X260531*
Y68937*
X259389Y70079*
G37*
X273760Y44866D02*
X273487Y44593D01*
G75*
G02X269693Y42632I-2174J-445*
G01*
Y37455*
G75*
G02X269272Y36441I-1431J0*
G01*
X266519Y33689*
G75*
G02X265506Y33268I-1014J1010*
G01*
X254419*
Y32697*
X247035*
Y25790*
X247365Y25461*
X259336*
X273760Y39884*
Y44866*
G36*
X273487Y44593*
G75*
G02X269693Y42632I-2174J-445*
G01*
Y37455*
G75*
G02X269272Y36441I-1431J0*
G01*
X266519Y33689*
G75*
G02X265506Y33268I-1014J1010*
G01*
X254419*
Y32697*
X247035*
Y25790*
X247365Y25461*
X259336*
X273760Y39884*
Y44866*
G37*
D02*
D18*
X130083Y37858D02*
X127307D01*
X123183Y41982*
X135978Y91348D02*
Y91293D01*
X152470*
X152474Y91297*
X152522*
X143951Y94695D02*
Y101333D01*
X141490Y103793*
X151628Y56648D02*
Y58518D01*
X163341Y70230*
X225152*
X228695Y66687*
Y62998*
X229089Y62604*
X152522Y89329D02*
X145585D01*
X143951Y87695*
X152522Y93266D02*
X150246D01*
X149364Y94148*
Y102415*
X125545Y126234*
X156459Y85392D02*
Y81502D01*
X152766Y77809*
X156459Y97203D02*
Y125652D01*
X157041Y126234*
X158427Y85392D02*
Y75652D01*
X156254Y73478*
X142081*
X135978Y79581*
Y84348*
X160396Y85392D02*
Y79715D01*
X163384Y76726*
X160396Y97203D02*
Y100061D01*
X164719Y104384*
X160585Y85203D02*
X160396Y85392D01*
X163384Y76726D02*
Y78203D01*
X162990*
X164333Y89329D02*
X176526D01*
X192868Y72986*
X201530*
X202415Y72100*
X226923*
X231844Y67179*
Y62998*
X232238Y62604*
X164333Y91297D02*
X177215D01*
X193262Y75250*
X202022*
X203301Y73970*
X228498*
X235191Y67278*
Y62801*
X235388Y62604*
X164333Y93266D02*
X178100D01*
X194148Y77219*
X197002*
X200447Y80663*
X200545Y95722*
X167337Y43951D02*
X164325D01*
X162553Y42179*
X167337Y45526D02*
X170033D01*
X167337Y47100D02*
X159065D01*
X158671Y47494*
X167337Y48675D02*
X169535D01*
X170789Y40376D02*
X170821Y40407D01*
X171018Y40604D02*
X170821Y40407D01*
X174817Y43951D02*
X176825D01*
X179348Y41427*
X181691*
X174817Y45526D02*
X199955D01*
X202514Y42967*
Y43317*
X203301*
X174817Y47100D02*
X204482D01*
X174817Y48675D02*
X178596D01*
X180860Y50939*
X184152*
X182730Y22494D02*
Y22833D01*
X178695Y26868*
X189719Y32533D02*
Y33376D01*
X196018Y39675*
Y39915*
X205959*
X207478Y41435*
X217128*
Y41195*
X199955Y118656D02*
X199963D01*
X202590Y116028*
X199955Y118656D02*
X200348D01*
X202590Y116028D02*
X204679Y118360D01*
X219640Y133321*
Y142463*
X219947Y142770*
X203301Y43317D02*
X206254D01*
X207281Y44344*
X217128*
X203990Y108419D02*
X206746D01*
X204482Y47100D02*
X216734D01*
X217128Y47494*
X204482Y49659D02*
Y47100D01*
X206746Y108419D02*
Y111372D01*
X228301Y132927*
Y142289*
X227821Y142770*
X211470Y95722D02*
X271608Y95821D01*
X275348Y92081*
Y39226*
X259994Y23872*
X246707*
X245033Y25545*
Y29037*
X244837Y29234*
X216730Y31100D02*
X216884Y31254D01*
X217128Y31498D02*
X216884Y31254D01*
X217128Y38045D02*
X210344D01*
X210289Y38100*
X219947Y85683D02*
Y91010D01*
X221411Y92474*
X271411*
X273183Y90703*
Y46313*
X271313Y44443*
Y44148*
X222789Y29904D02*
Y29234D01*
Y62604D02*
X222593D01*
Y65900*
X221805Y66687*
X210683*
X205073Y61274*
X205939*
Y62455*
X224561Y23774D02*
Y21750D01*
X224518Y21707*
X225939Y62604D02*
X225742D01*
Y66490*
X223675Y68557*
X202612*
X194443Y60781*
X195939*
Y62455*
X227821Y85683D02*
X228695D01*
Y81636*
X238821Y71510*
X259982*
X261963Y69530*
Y51234*
X258222Y47494*
X250498*
X233167Y23226D02*
Y21707D01*
X235695Y85683D02*
X236077D01*
Y77120*
X239313Y73884*
X261951*
X263931Y71904*
Y42573*
X262750Y41392*
X250695*
X250498Y41195*
X238537Y62604D02*
Y66589D01*
X229482Y75644*
X207435*
X204679Y78400*
Y99463*
X200447Y103695*
Y113636*
X202590Y116028*
X241687Y62604D02*
Y66195D01*
X229679Y78203*
X208222*
X206746Y79679*
Y108419*
X243569Y85683D02*
Y78203D01*
X246018Y75754*
X263624*
X266096Y73281*
Y39030*
X265112Y38045*
X250498*
X245033Y62801D02*
X244837Y62604D01*
X251443Y85683D02*
Y78596D01*
X252514Y77526*
X265002*
X268262Y74266*
Y37455*
X265506Y34699*
X250695*
X250498Y34896*
X257392Y56943D02*
X257829Y57380D01*
Y64380D02*
X257675D01*
X258026Y44148D02*
X250695D01*
X250498Y44344*
X258026Y57183D02*
X257829Y57380D01*
X279778Y82337D02*
X286963D01*
X287061Y82435*
X279778Y102612D02*
X286963D01*
X287061Y102514*
X279778Y122494D02*
X286963D01*
X287061Y122593*
X285978Y58136D02*
Y61274D01*
X287061Y62356*
Y42278D02*
X279876D01*
X279778Y42376*
X287061Y62356D02*
X279876D01*
X279778Y62258*
D02*
D19*
X130083Y30378D03*
Y34118D03*
Y37858D03*
X141106Y30378D03*
Y37858D03*
D02*
D70*
X125545Y126234D03*
X157041D03*
D02*
D71*
X222789Y29234D03*
Y62604D03*
X225939Y29234D03*
Y62604D03*
X229089Y29234D03*
Y62604D03*
X232238Y29234D03*
Y62604D03*
X235388Y29234D03*
Y62604D03*
X238537Y29234D03*
Y62604D03*
X241687Y29234D03*
Y62604D03*
X244837Y29234D03*
Y62604D03*
D02*
D20*
X217128Y34896D03*
Y38045D03*
Y41195D03*
Y44344D03*
Y47494D03*
Y50644D03*
Y53793D03*
Y56943D03*
X250498Y34896D03*
Y38045D03*
Y41195D03*
Y44344D03*
Y47494D03*
Y50644D03*
Y53793D03*
Y56943D03*
D02*
D21*
X152522Y89329D03*
Y91297D03*
Y93266D03*
X164333Y89329D03*
Y91297D03*
Y93266D03*
D02*
D22*
X156459Y85392D03*
Y97203D03*
X158427Y85392D03*
Y97203D03*
X160396Y85392D03*
Y97203D03*
D02*
D23*
X158427Y91297D03*
D02*
D24*
X76132Y32589D03*
Y132982D03*
D02*
D25*
Y82785D03*
D02*
D26*
X124659Y55368D03*
X139030D03*
D02*
D27*
X112094Y34118D03*
X119094D03*
X145766Y77809D03*
X151671Y47494D03*
X152766Y77809D03*
X158671Y47494D03*
X163384Y76726D03*
X170384D03*
X170789Y34341D03*
X177789D03*
X181691Y41427D03*
X184152Y50939D03*
X188691Y41427D03*
X191152Y50939D03*
X197045Y131451D03*
X204045D03*
X217518Y15604D03*
Y21707D03*
X224518Y15604D03*
Y21707D03*
X233167Y15703D03*
Y21707D03*
X240167Y15703D03*
Y21707D03*
D02*
D28*
X135978Y84348D03*
Y91348D03*
X143951Y87695D03*
Y94695D03*
X149364Y28246D03*
Y35246D03*
X257829Y57380D03*
Y64380D03*
D02*
D29*
X196018Y32675D03*
Y39675D03*
X203301Y36317D03*
Y43317D03*
X210289Y31100D03*
Y38100D03*
D02*
D72*
X167337Y43951D03*
Y45526D03*
Y47100D03*
Y48675D03*
Y50250D03*
X174817Y43951D03*
Y45526D03*
Y47100D03*
Y48675D03*
Y50250D03*
D02*
D73*
X287061Y42278D03*
Y62356D03*
Y82435D03*
Y102514D03*
Y122593D03*
Y142671D03*
D02*
D74*
X212073Y85683D03*
Y142770D03*
X219947Y85683D03*
Y142770D03*
X227821Y85683D03*
Y142770D03*
X235695Y85683D03*
Y142770D03*
X243569Y85683D03*
Y142770D03*
X251443Y85683D03*
Y142770D03*
X259317Y85683D03*
Y142770D03*
X267191Y85683D03*
Y142770D03*
D02*
D75*
X156695Y26868D03*
X162994D03*
D02*
D76*
X175939Y62455D03*
X185939D03*
X195939D03*
X205939D03*
D02*
D77*
X76136Y69148D03*
Y96116D03*
X135781Y23085D03*
X192967Y88439D03*
D02*
D78*
X124856Y34108D03*
X141490Y103793D03*
X159896Y103695D03*
X162553Y42179D03*
X164719Y104384D03*
X170821Y40407D03*
X184404Y36569D03*
X189719Y32533D03*
X197199Y51234D03*
X200545Y95722D03*
X203695Y126333D03*
X211470Y95722D03*
X212061Y91884D03*
X216884Y31254D03*
X224266Y34994D03*
X242179Y42671D03*
X243163Y68852D03*
X250742Y62848D03*
X253596Y29581D03*
X258026Y44148D03*
X259010Y149266D03*
X269344Y78793D03*
X271313Y44148D03*
X279778Y42376D03*
Y62258D03*
Y82337D03*
Y102612D03*
Y122494D03*
D02*
D79*
X123183Y41982D03*
X150447Y84502D03*
X151530Y41392D03*
X151628Y56648D03*
X166293Y84108D03*
X212061Y18656D03*
X246707D03*
D02*
D80*
X76132Y69152D02*
X76136Y69148D01*
X76132Y96112D02*
X76136Y96116D01*
X112094Y34118D02*
Y31614D01*
X113537Y30171*
X129679*
X129886Y30378*
X130083*
X112094Y34118D02*
Y42803D01*
X124659Y55368*
X112094Y34118D02*
X77661D01*
X76132Y32589*
X130093Y34108D02*
X130083Y34118D01*
X141106Y30378D02*
X147232D01*
X149364Y28246*
X155317*
X156695Y26868*
X162994D02*
X204833D01*
X205959Y25742*
X213931*
X214915Y26726*
X218262*
X220427Y28892*
X222447*
X222789Y29234*
X162994Y26868D02*
Y26825D01*
Y26868D02*
Y35636D01*
X158616Y40014*
Y45250*
X158671Y45305*
Y47494*
X162994Y26868D02*
X199900D01*
X203301Y30270*
Y36317*
X162994Y26868D02*
X178695D01*
X162994D02*
X173817D01*
X177711Y30762*
Y34262*
X177789Y34341*
X163384Y76726D02*
Y76671D01*
X157632Y70919*
X138195*
X76132Y132982*
X177789Y34341D02*
Y37526D01*
X181691Y41427*
X178695Y26868D02*
X190211D01*
X196018Y32675*
X185939Y62455D02*
Y60152D01*
X181254Y55467*
X162947*
X158813Y51333*
Y48104*
X159915Y47494*
X158671*
X192967Y88439D02*
Y127372D01*
X197045Y131451*
Y142715*
X203892Y149561*
X233616*
X235486Y147691*
Y142978*
X235695Y142770*
X224518Y21707D02*
X233167D01*
X224518D02*
Y15604D01*
X225742Y21707D02*
X224518D01*
X233167Y15703D02*
Y21707D01*
D02*
D81*
X141106Y37858D02*
X143862D01*
X144935Y38931*
Y49463*
X139030Y55368*
X222789Y29234D02*
Y25545D01*
X224561Y23774*
X235388Y29234D02*
Y47297D01*
X244837Y56746*
Y62604*
X235388Y29234D02*
Y25447D01*
X233167Y23226*
X257675Y64380D02*
X254482Y67573D01*
X246018*
X244837Y66392*
Y62604*
D02*
D82*
X287061Y142671D02*
X267289D01*
X267191Y142770*
D02*
D122*
X68642Y82785D02*
X67106D01*
X76132Y75295D02*
Y73760D01*
Y90276D02*
Y91811D01*
X83622Y82785D02*
X85157D01*
X117333Y34118D02*
X115797D01*
X119094Y35703D02*
Y37238D01*
X120856Y34118D02*
X122392D01*
X128695D02*
X127159D01*
X131470D02*
X133006D01*
X144004Y77809D02*
X142469D01*
X145766Y79394D02*
Y80929D01*
X147528Y77809D02*
X149063D01*
X147780Y35246D02*
X146244D01*
X149364Y33484D02*
Y31949D01*
Y37008D02*
Y38543D01*
X149909Y47494D02*
X148374D01*
X150949Y35246D02*
X152484D01*
X151671Y45909D02*
Y44374D01*
Y49079D02*
Y50614D01*
X153433Y47494D02*
X154969D01*
X155254Y88124D02*
X153831Y86701D01*
X155254Y94471D02*
X153831Y95894D01*
X158427Y98394D02*
Y99929D01*
X161601Y88124D02*
X163024Y86701D01*
X161601Y94471D02*
X163024Y95894D01*
X166539Y50250D02*
X165004D01*
X167337Y50309D02*
Y51844D01*
X168134Y50250D02*
X169669D01*
X168622Y76726D02*
X167087D01*
X169028Y34341D02*
X167492D01*
X170384Y75142D02*
Y73606D01*
Y78311D02*
Y79846D01*
X170789Y32756D02*
Y31220D01*
Y35925D02*
Y37461D01*
X172146Y76726D02*
X173681D01*
X172551Y34341D02*
X174087D01*
X173323Y62455D02*
X171787D01*
X175939Y59839D02*
Y58303D01*
Y65071D02*
Y66606D01*
X178555Y62455D02*
X180091D01*
X186929Y41427D02*
X185394D01*
X188691Y39843D02*
Y38307D01*
X189390Y50939D02*
X187854D01*
X190453Y41427D02*
X191988D01*
X191152Y52524D02*
Y54059D01*
X192913Y50939D02*
X194449D01*
X202283Y131451D02*
X200748D01*
X204045Y129866D02*
Y128331D01*
Y133035D02*
Y134571D01*
X205807Y131451D02*
X207343D01*
X209898Y85683D02*
X208362D01*
X212070Y31100D02*
X213604D01*
X212073Y82524D02*
Y80988D01*
Y88843D02*
Y90378D01*
X214248Y85683D02*
X215783D01*
X215756Y15604D02*
X214220D01*
X215756Y21707D02*
X214220D01*
X217128Y34098D02*
Y32563D01*
X217518Y14020D02*
Y12484D01*
X219280Y15604D02*
X220815D01*
X219280Y21707D02*
X220815D01*
X219648Y34896D02*
X221183D01*
X238406Y15703D02*
X236870D01*
X238406Y21707D02*
X236870D01*
X240167Y14118D02*
Y12583D01*
Y23291D02*
Y24827D01*
X241929Y15703D02*
X243465D01*
X241929Y21707D02*
X243465D01*
X250498Y57740D02*
Y59276D01*
X253018Y56943D02*
X254553D01*
X256244Y57380D02*
X254709D01*
X257142Y142770D02*
X255606D01*
X257829Y55618D02*
Y54083D01*
Y59142D02*
Y60677D01*
X259317Y139610D02*
Y138075D01*
Y145929D02*
Y147465D01*
X261492Y142770D02*
X263028D01*
X265016Y85683D02*
X263480D01*
X267191Y82524D02*
Y80988D01*
Y88843D02*
Y90378D01*
X269366Y85683D02*
X270902D01*
X283336Y38553D02*
X281913Y37130D01*
X283336Y46002D02*
X281913Y47425D01*
X283336Y58631D02*
X281913Y57209D01*
X283336Y66081D02*
X281913Y67504D01*
X283336Y78710D02*
X281913Y77287D01*
X283336Y86160D02*
X281913Y87583D01*
X283336Y98789D02*
X281913Y97366D01*
X283336Y106239D02*
X281913Y107661D01*
X283336Y118868D02*
X281913Y117445D01*
X283336Y126317D02*
X281913Y127740D01*
D02*
D123*
X182730Y22494D03*
X199955Y118656D03*
X203990Y108419D03*
X204482Y49659D03*
X0Y0D02*
M02*
