G04 DesignSpark PCB Gerber Version 9.0 Build 5115 *
%FSLAX35Y35*%
%MOIN*%
%ADD76R,0.06000X0.06000*%
%ADD15C,0.00500*%
%ADD122C,0.00768*%
%ADD18C,0.00827*%
%ADD81C,0.01181*%
%ADD80C,0.01969*%
%ADD78C,0.02402*%
%ADD79C,0.03200*%
%ADD77C,0.05600*%
X0Y0D02*
D02*
D15*
X5762Y158222D02*
Y4974D01*
X286864*
Y158222*
X5762*
X149010Y56648D02*
G75*
G02X154246I2618D01*
G01*
G75*
G02X151090Y54086I-2618*
G01*
X149787Y52783*
G75*
G02X148774Y52362I-1014J1010*
G01*
X135981*
X125794Y42175*
G75*
G02X125801Y41982I-2609J-193*
G01*
G75*
G02X120565I-2618*
G01*
G75*
G02X124030Y44459I2618*
G01*
X134374Y54804*
G75*
G02X135388Y55224I1014J-1010*
G01*
X148181*
X149066Y56110*
G75*
G02X149010Y56648I2561J538*
G01*
X166150Y106079D02*
G75*
G02X166937Y104384I-1431J-1695D01*
G01*
G75*
G02X162500I-2219*
G01*
G75*
G02X162984Y105767I2219*
G01*
X160976Y107776*
X147201*
X143664Y104238*
G75*
G02X143709Y103793I-2174J-444*
G01*
G75*
G02X139272I-2219*
G01*
G75*
G02X141387Y106009I2219*
G01*
X145595Y110217*
G75*
G02X146608Y110638I1014J-1010*
G01*
X161569*
G75*
G02X162582Y110217I0J-1431*
G01*
X165729Y107070*
G75*
G02X166150Y106079I-1010J-1014*
G01*
X188763Y34535D02*
G75*
G02X191937Y32533I956J-2002D01*
G01*
G75*
G02X187862Y31319I-2219*
G01*
X166884*
G75*
G02X165746Y31791J1608*
G01*
X161417Y36120*
G75*
G02X160945Y37258I1136J1138*
G01*
Y40651*
G75*
G02X160335Y42179I1608J1528*
G01*
G75*
G02X164772I2219*
G01*
G75*
G02X164161Y40651I-2218*
G01*
Y37924*
X167550Y34535*
X188763*
X171921Y66472D02*
X179957D01*
Y58437*
X171921*
Y66472*
X189149Y88439D02*
G75*
G02X196784I3818D01*
G01*
G75*
G02X195126Y85291I-3818*
G01*
Y78163*
G75*
G02X194498Y76641I-2159*
G01*
X188098Y70187*
Y66472*
X189957*
Y58437*
X181921*
Y66472*
X183780*
Y71077*
G75*
G02X184407Y72599I2159*
G01*
X190807Y79053*
Y85291*
G75*
G02X189149Y88439I2159J3148*
G01*
X191921Y66472D02*
X199957D01*
Y58437*
X191921*
Y66472*
X209775Y97154D02*
G75*
G02X213689Y95722I1695J-1431D01*
G01*
G75*
G02X209775Y94291I-2219*
G01*
X202241*
G75*
G02X198327Y95722I-1695J1431*
G01*
G75*
G02X202241Y97154I2219*
G01*
X209775*
X201921Y66472D02*
X209957D01*
Y58437*
X201921*
Y66472*
X269618Y45579D02*
G75*
G02X273531Y44148I1695J-1431D01*
G01*
G75*
G02X269618Y42717I-2219*
G01*
X259721*
G75*
G02X255807Y44148I-1695J1431*
G01*
G75*
G02X259721Y45579I2219*
G01*
X269618*
X6012Y37356D02*
G36*
Y5224D01*
X286614*
Y37356*
X164729*
X167550Y34535*
X188763*
G75*
G02X191937Y32533I956J-2002*
G01*
G75*
G02X187862Y31319I-2219J0*
G01*
X166884*
G75*
G02X165746Y31791I0J1609*
G01*
X161417Y36120*
G75*
G02X160945Y37258I1137J1139*
G01*
Y37356*
X6012*
G37*
Y44148D02*
G36*
Y37356D01*
X160945*
Y40651*
G75*
G02X160335Y42179I1608J1528*
G01*
G75*
G02X161530Y44148I2219*
G01*
X127766*
X125794Y42175*
G75*
G02X125801Y41992I-2364J-183*
G01*
G75*
G02Y41982I-2344J-5*
G01*
G75*
G02X120565I-2618*
G01*
G75*
G02X121712Y44148I2618J0*
G01*
X6012*
G37*
X164161Y40651D02*
G36*
Y37924D01*
X164729Y37356*
X286614*
Y44148*
X273531*
G75*
G02X269618Y42717I-2219J0*
G01*
X259721*
G75*
G02X255807Y44148I-1695J1431*
G01*
X163576*
G75*
G02X164772Y42179I-1023J-1969*
G01*
G75*
G02X164161Y40651I-2218*
G01*
G37*
X6012Y49315D02*
G36*
Y44148D01*
X121712*
G75*
G02X124030Y44459I1471J-2165*
G01*
X128885Y49315*
X6012*
G37*
X132933D02*
G36*
X127766Y44148D01*
X161530*
G75*
G02X163576I1023J-1969*
G01*
X255807*
G75*
G02X259721Y45579I2219J0*
G01*
X269618*
G75*
G02X273531Y44148I1695J-1431*
G01*
X286614*
Y49315*
X132933*
G37*
X6012Y62455D02*
G36*
Y49315D01*
X128885*
X134374Y54804*
G75*
G02X135388Y55224I1013J-1009*
G01*
X148181*
X149066Y56110*
G75*
G02X149010Y56648I2586J541*
G01*
G75*
G02X154246I2618*
G01*
G75*
G02X151090Y54086I-2618*
G01*
X149787Y52783*
G75*
G02X148774Y52362I-1013J1009*
G01*
X135981*
X132933Y49315*
X286614*
Y62455*
X209957*
Y58437*
X201921*
Y62455*
X199957*
Y58437*
X191921*
Y62455*
X189957*
Y58437*
X181921*
Y62455*
X179957*
Y58437*
X171921*
Y62455*
X6012*
G37*
Y95722D02*
G36*
Y62455D01*
X171921*
Y66472*
X179957*
Y62455*
X181921*
Y66472*
X183780*
Y71077*
Y71077*
G75*
G02X184407Y72599I2159*
G01*
X190807Y79053*
Y85291*
G75*
G02X189149Y88439I2159J3148*
G01*
Y88439*
G75*
G02X196784I3818*
G01*
Y88439*
G75*
G02X195126Y85291I-3817*
G01*
Y78163*
Y78163*
G75*
G02X194498Y76641I-2159*
G01*
X188098Y70187*
Y66472*
X189957*
Y62455*
X191921*
Y66472*
X199957*
Y62455*
X201921*
Y66472*
X209957*
Y62455*
X286614*
Y95722*
X213689*
G75*
G02X209775Y94291I-2219J0*
G01*
X202241*
G75*
G02X198327Y95722I-1695J1431*
G01*
X6012*
G37*
Y106106D02*
G36*
Y95722D01*
X198327*
G75*
G02X202241Y97154I2219J0*
G01*
X209775*
G75*
G02X213689Y95722I1695J-1431*
G01*
X286614*
Y106106*
X166149*
G75*
G02X166150Y106079I-1434J-55*
G01*
G75*
G02X166937Y104385I-1430J-1694*
G01*
G75*
G02Y104384I-2506J0*
G01*
G75*
G02X162500I-2219*
G01*
G75*
G02Y104385I2256J1*
G01*
G75*
G02X162984Y105767I2215*
G01*
X162645Y106106*
X145532*
X143664Y104238*
G75*
G02X143709Y103798I-2139J-441*
G01*
G75*
G02Y103793I-2121J-2*
G01*
G75*
G02X139272I-2219*
G01*
G75*
G02X141387Y106009I2219*
G01*
X141484Y106106*
X6012*
G37*
Y157972D02*
G36*
Y106106D01*
X141484*
X145595Y110217*
G75*
G02X146608Y110638I1013J-1009*
G01*
X161569*
G75*
G02X162582Y110217J-1430*
G01*
X165729Y107070*
G75*
G02X166149Y106106I-1013J-1015*
G01*
X286614*
Y157972*
X6012*
G37*
X147201Y107776D02*
G36*
X145532Y106106D01*
X162645*
X160976Y107776*
X147201*
G37*
D02*
D18*
X123183Y41982D02*
X123577D01*
X135388Y53793*
X148774*
X151628Y56648*
X141490Y103793D02*
Y104089D01*
X146608Y109207*
X161569*
X164719Y106057*
Y104384*
X200545Y95722D02*
X211470D01*
X271313Y44148D02*
X258026D01*
D02*
D76*
X175939Y62455D03*
X185939D03*
X195939D03*
X205939D03*
D02*
D77*
X76136Y69148D03*
Y96116D03*
X135781Y23085D03*
X192967Y88439D03*
D02*
D78*
X124856Y34108D03*
X141490Y103793D03*
X159896Y103695D03*
X162553Y42179D03*
X164719Y104384D03*
X170821Y40407D03*
X184404Y36569D03*
X189719Y32533D03*
X197199Y51234D03*
X200545Y95722D03*
X203695Y126333D03*
X211470Y95722D03*
X212061Y91884D03*
X216884Y31254D03*
X224266Y34994D03*
X242179Y42671D03*
X243163Y68852D03*
X250742Y62848D03*
X253596Y29581D03*
X258026Y44148D03*
X259010Y149266D03*
X269344Y78793D03*
X271313Y44148D03*
X279778Y42376D03*
Y62258D03*
Y82337D03*
Y102612D03*
Y122494D03*
D02*
D79*
X123183Y41982D03*
X150447Y84502D03*
X151530Y41392D03*
X151628Y56648D03*
X166293Y84108D03*
X212061Y18656D03*
X246707D03*
D02*
D80*
X185939Y62455D02*
X185880D01*
Y71077*
X192967Y78163*
Y88439*
D02*
D81*
X162553Y42179D02*
Y37258D01*
X166884Y32927*
X189325*
X189719Y32533*
D02*
D122*
X173323Y62455D02*
X171787D01*
X175939Y59839D02*
Y58303D01*
Y65071D02*
Y66606D01*
X178555Y62455D02*
X180091D01*
X0Y0D02*
M02*
