G04 DesignSpark PCB Gerber Version 9.0 Build 5115 *
%FSLAX35Y35*%
%MOIN*%
%ADD12C,0.00394*%
%ADD15C,0.00500*%
%ADD11C,0.00591*%
%ADD10C,0.00787*%
%ADD16C,0.00800*%
%ADD14C,0.00984*%
%ADD17C,0.01000*%
%ADD13C,0.01575*%
X0Y0D02*
D02*
D10*
X63045Y41250D02*
X33219D01*
Y124321*
X63045*
X89219Y41250D02*
X111959D01*
Y124321*
X89219*
X128311Y40024D02*
X131854D01*
X133232Y39827D02*
X137957D01*
Y28409*
X133232*
Y39827*
X159844Y28049D02*
Y25687D01*
X171766Y43163D02*
X170388D01*
Y51037*
X171766*
Y43163*
X221411Y33518D02*
Y58321D01*
X246215*
Y33518*
X221411*
X280762Y142081D02*
G75*
G02Y142868J394D01*
G01*
Y142081D02*
G75*
G03Y142868J394D01*
G01*
D02*
D11*
X23441Y146904D02*
X19691D01*
Y143778*
X20629Y141904D02*
X20004Y141591D01*
X19691Y140966*
Y140341*
X20004Y139716*
X20629Y139404*
X21254*
X21879Y139716*
X22191Y140341*
Y140966*
X21879Y141591*
X21254Y141904*
X20629*
X19691Y136904D02*
X22191D01*
X21254D02*
X21879Y136591D01*
X22191Y135966*
Y135341*
X21879Y134716*
Y131904D02*
X22191Y131278D01*
Y130341*
X21879Y129716*
X21254Y129404*
X20317*
X20004Y129716*
X19691Y130341*
Y130966*
X20004Y131591*
X20317Y131904*
X20629*
X20941Y131591*
X21254Y130966*
Y130341*
X20941Y129716*
X20629Y129404*
X20317D02*
X19691D01*
X23441Y126904D02*
X19691Y126591D01*
X21567Y125341*
X19691Y124091*
X23441Y123778*
X19691Y121904D02*
X23441Y120341D01*
X19691Y118778*
X21254Y121278D02*
Y119404D01*
X19691Y116904D02*
X23441D01*
X19691Y113778*
X23441*
X19691Y106904D02*
X23441D01*
X21567D02*
Y105966D01*
X23441Y103778*
X21567Y105966D02*
X19691Y103778D01*
X20004Y99404D02*
X19691Y99716D01*
Y100341*
Y100966*
X20004Y101591*
X20629Y101904*
X21567*
X21879Y101591*
X22191Y100966*
Y100341*
X21879Y99716*
X21567Y99404*
X21254*
X20941Y99716*
X20629Y100341*
Y100966*
X20941Y101591*
X21254Y101904*
X22191Y96904D02*
X20941Y96591D01*
X20317Y95966*
Y95341*
X20941Y94716*
X22191Y94404*
X20941Y94716D02*
X19691Y95028D01*
X19067Y95341*
X18754Y95966*
X19067Y96591*
X21879Y89404D02*
X22191Y90028D01*
Y90966*
X21879Y91591*
X21254Y91904*
X20629*
X20004Y91591*
X19691Y90966*
Y90028*
X20004Y89404*
X19691Y86904D02*
X23441D01*
X21254D02*
X21879Y86591D01*
X22191Y85966*
Y85341*
X21879Y84716*
X21254Y84404*
X19691*
X21879Y81904D02*
X22191Y81278D01*
Y80341*
X21879Y79716*
X21254Y79404*
X20317*
X20004Y79716*
X19691Y80341*
Y80966*
X20004Y81591*
X20317Y81904*
X20629*
X20941Y81591*
X21254Y80966*
Y80341*
X20941Y79716*
X20629Y79404*
X20317D02*
X19691D01*
Y75654D02*
X22191D01*
X23129D02*
X19691Y71904*
X22191D01*
X21254D02*
X21879Y71591D01*
X22191Y70966*
Y70341*
X21879Y69716*
X21254Y69404*
X19691*
X13691Y146904D02*
X17441D01*
X15254D02*
X15879Y146591D01*
X16191Y145966*
Y145341*
X15879Y144716*
X15254Y144404*
X13691*
X16191Y141383D02*
Y139924D01*
X16817Y140654D02*
X14004D01*
X13691Y140341*
Y140028*
X14004Y139716*
X16191Y136383D02*
Y134924D01*
X16817Y135654D02*
X14004D01*
X13691Y135341*
Y135028*
X14004Y134716*
X16191Y131904D02*
X12754D01*
X14629D02*
X14004Y131591D01*
X13691Y130966*
Y130341*
X14004Y129716*
X14629Y129404*
X15254*
X15879Y129716*
X16191Y130341*
Y130966*
X15879Y131591*
X15254Y131904*
X14629*
X14004Y126904D02*
X13691Y126278D01*
Y125028*
X14004Y124404*
X14629*
X14941Y125028*
Y126278*
X15254Y126904*
X15879*
X16191Y126278*
Y125028*
X15879Y124404*
X13691Y120341D02*
X14004Y120028D01*
X14317Y120341*
X14004Y120654*
X13691Y120341*
X15254D02*
X15567Y120028D01*
X15879Y120341*
X15567Y120654*
X15254Y120341*
X13691Y116904D02*
X17441Y113778D01*
X13691Y111904D02*
X17441Y108778D01*
X15254Y104404D02*
X15879Y104716D01*
X16191Y105341*
Y105966*
X15879Y106591*
X15254Y106904*
X14941*
X14317Y106591*
X14004Y105966*
Y105341*
X14317Y104716*
X14941Y104404*
X16191D02*
X13691D01*
X13067Y104716*
X12754Y105341*
Y106278*
X13067Y106904*
X13691Y100654D02*
X16191D01*
X17129D02*
X16191Y96383*
Y94924D01*
X16817Y95654D02*
X14004D01*
X13691Y95341*
Y95028*
X14004Y94716*
X13691Y91904D02*
X17441D01*
X15254D02*
X15879Y91591D01*
X16191Y90966*
Y90341*
X15879Y89716*
X15254Y89404*
X13691*
X16191Y86904D02*
X14629D01*
X14004Y86591*
X13691Y85966*
Y85341*
X14004Y84716*
X14629Y84404*
X16191D02*
X13691D01*
X14629Y81904D02*
X14004Y81591D01*
X13691Y80966*
Y80341*
X14004Y79716*
X14629Y79404*
X15254*
X15879Y79716*
X16191Y80341*
Y80966*
X15879Y81591*
X15254Y81904*
X13691D02*
X17441D01*
X13691Y76591D02*
X14004Y76278D01*
X14317Y76591*
X14004Y76904*
X13691Y76591*
X15879Y69404D02*
X16191Y70028D01*
Y70966*
X15879Y71591*
X15254Y71904*
X14629*
X14004Y71591*
X13691Y70966*
Y70028*
X14004Y69404*
X14629Y66904D02*
X14004Y66591D01*
X13691Y65966*
Y65341*
X14004Y64716*
X14629Y64404*
X15254*
X15879Y64716*
X16191Y65341*
Y65966*
X15879Y66591*
X15254Y66904*
X14629*
X13691Y61904D02*
X16191D01*
X15879D02*
X16191Y61591D01*
Y60966*
X15879Y60654*
X14941*
X15879D02*
X16191Y60341D01*
Y59716*
X15879Y59404*
X13691*
Y56904D02*
X17441Y53778D01*
X13691Y51904D02*
X17441D01*
X14941D02*
Y50966D01*
X16191Y49404*
X14941Y50966D02*
X13691Y49404D01*
X14629Y46904D02*
X14004Y46591D01*
X13691Y45966*
Y45341*
X14004Y44716*
X14629Y44404*
X15254*
X15879Y44716*
X16191Y45341*
Y45966*
X15879Y46591*
X15254Y46904*
X13691D02*
X17441D01*
X13691Y41904D02*
X16191D01*
X15879D02*
X16191Y41591D01*
Y40966*
X15879Y40654*
X14941*
X15879D02*
X16191Y40341D01*
Y39716*
X15879Y39404*
X13691*
Y36278D02*
Y35028D01*
Y35654D02*
X17441D01*
X16817Y36278*
X14004Y31904D02*
X13691Y31278D01*
Y30341*
X14004Y29716*
X14629Y29404*
X14941*
X15567Y29716*
X15879Y30341*
Y31904*
X17441*
Y29404*
X46514Y33678D02*
Y30865D01*
X46826Y30240*
X47451Y29928*
X48701*
X49326Y30240*
X49639Y30865*
Y33678*
X52139Y29928D02*
X53389D01*
X52764D02*
Y33678D01*
X52139Y33053*
X108100Y26813D02*
X107787Y26500D01*
X107162Y26187*
X106224*
X105600Y26500*
X105287Y26813*
X104974Y27437*
Y28687*
X105287Y29313*
X105600Y29625*
X106224Y29937*
X107162*
X107787Y29625*
X108100Y29313*
X110600Y26187D02*
X111850D01*
X111224D02*
Y29937D01*
X110600Y29313*
X119148Y75607D02*
Y71857D01*
X122273*
X124773D02*
X126023D01*
X125398D02*
Y75607D01*
X124773Y74982*
X120971Y22743D02*
X122221D01*
X121596D02*
Y26493D01*
X120971D02*
X122221D01*
X128159Y23368D02*
X127846Y23055D01*
X127221Y22743*
X126283*
X125659Y23055*
X125346Y23368*
X125033Y23993*
Y25243*
X125346Y25868*
X125659Y26180*
X126283Y26493*
X127221*
X127846Y26180*
X128159Y25868*
X130659Y22743D02*
X131909D01*
X131283D02*
Y26493D01*
X130659Y25868*
X126997Y89903D02*
X126685Y89591D01*
X126059Y89278*
X125122*
X124497Y89591*
X124185Y89903*
X123872Y90528*
Y91778*
X124185Y92403*
X124497Y92716*
X125122Y93028*
X126059*
X126685Y92716*
X126997Y92403*
X129809Y89278D02*
X130435Y89591D01*
X131059Y90216*
X131372Y91153*
Y92091*
X131059Y92716*
X130435Y93028*
X129809*
X129185Y92716*
X128872Y92091*
X129185Y91466*
X129809Y91153*
X130435*
X131059Y91466*
X131372Y92091*
X134871Y96694D02*
X134559Y96382D01*
X133933Y96069*
X132996*
X132371Y96382*
X132059Y96694*
X131746Y97319*
Y98569*
X132059Y99194*
X132371Y99507*
X132996Y99819*
X133933*
X134559Y99507*
X134871Y99194*
X137683Y97944D02*
X138309D01*
X138933Y98257*
X139246Y98882*
X138933Y99507*
X138309Y99819*
X137683*
X137059Y99507*
X136746Y98882*
X137059Y98257*
X137683Y97944*
X137059Y97632*
X136746Y97007*
X137059Y96382*
X137683Y96069*
X138309*
X138933Y96382*
X139246Y97007*
X138933Y97632*
X138309Y97944*
X143041Y70317D02*
X142728Y70004D01*
X142103Y69691*
X141165*
X140541Y70004*
X140228Y70317*
X139915Y70941*
Y72191*
X140228Y72817*
X140541Y73129*
X141165Y73441*
X142103*
X142728Y73129*
X143041Y72817*
X145541Y69691D02*
X146791D01*
X146165D02*
Y73441D01*
X145541Y72817*
X150228Y70004D02*
X150853Y69691D01*
X151478*
X152103Y70004*
X152415Y70629*
Y72504*
X152103Y73129*
X151478Y73441*
X150853*
X150228Y73129*
X149915Y72504*
Y70629*
X150228Y70004*
X152103Y73129*
X144419Y20809D02*
X144106Y20496D01*
X143481Y20183*
X142543*
X141919Y20496*
X141606Y20809*
X141293Y21433*
Y22683*
X141606Y23309*
X141919Y23621*
X142543Y23933*
X143481*
X144106Y23621*
X144419Y23309*
X148793Y20183D02*
X146293D01*
X148481Y22371*
X148793Y22996*
X148481Y23621*
X147856Y23933*
X146919*
X146293Y23621*
X153596Y35636D02*
X155159Y39386D01*
X156722Y35636*
X154222Y37199D02*
X156096D01*
X161722Y36261D02*
X161409Y35949D01*
X160784Y35636*
X159846*
X159222Y35949*
X158909Y36261*
X158596Y36886*
Y38136*
X158909Y38761*
X159222Y39074*
X159846Y39386*
X160784*
X161409Y39074*
X161722Y38761*
X166096Y35636D02*
X163596D01*
X165784Y37824*
X166096Y38449*
X165784Y39074*
X165159Y39386*
X164222*
X163596Y39074*
X153844Y19306D02*
Y23056D01*
X156970*
X156344Y21181D02*
X153844D01*
X161032D02*
X161657Y20868D01*
X161970Y20243*
X161657Y19618*
X161032Y19306*
X158844*
Y23056*
X161032*
X161657Y22743*
X161970Y22118*
X161657Y21493*
X161032Y21181*
X158844*
X164470Y19306D02*
X165720D01*
X165094D02*
Y23056D01*
X164470Y22431*
X158100Y53387D02*
X157787Y53075D01*
X157162Y52762*
X156224*
X155600Y53075*
X155287Y53387*
X154974Y54012*
Y55262*
X155287Y55887*
X155600Y56200*
X156224Y56512*
X157162*
X157787Y56200*
X158100Y55887*
X160600Y52762D02*
X161850D01*
X161224D02*
Y56512D01*
X160600Y55887*
X164974Y53075D02*
X165600Y52762D01*
X166537*
X167162Y53075*
X167474Y53700*
Y54012*
X167162Y54637*
X166537Y54950*
X164974*
Y56512*
X167474*
X164672Y96857D02*
X165922D01*
X165297D02*
Y100607D01*
X164672D02*
X165922D01*
X171859Y97482D02*
X171547Y97169D01*
X170922Y96857*
X169984*
X169359Y97169*
X169047Y97482*
X168734Y98107*
Y99357*
X169047Y99982*
X169359Y100294*
X169984Y100607*
X170922*
X171547Y100294*
X171859Y99982*
X174047Y97169D02*
X174672Y96857D01*
X175297*
X175922Y97169*
X176234Y97794*
X175922Y98419*
X175297Y98732*
X174672*
X175297D02*
X175922Y99044D01*
X176234Y99669*
X175922Y100294*
X175297Y100607*
X174672*
X174047Y100294*
X163833Y114386D02*
Y110636D01*
X166958*
X168833Y111574D02*
X169145Y110949D01*
X169770Y110636*
X171020*
X171645Y110949*
X171958Y111574*
X171645Y112199*
X171020Y112511*
X169770*
X169145Y112824*
X168833Y113449*
X169145Y114074*
X169770Y114386*
X171020*
X171645Y114074*
X171958Y113449*
X174458Y110636D02*
X175708D01*
X175083D02*
Y114386D01*
X174458Y113761*
X171682Y26517D02*
X171370Y26205D01*
X170744Y25892*
X169807*
X169182Y26205*
X168870Y26517*
X168557Y27142*
Y28392*
X168870Y29017*
X169182Y29330*
X169807Y29642*
X170744*
X171370Y29330*
X171682Y29017*
X174182Y25892D02*
X175432D01*
X174807D02*
Y29642D01*
X174182Y29017*
X181057Y25892D02*
X178557D01*
X180744Y28080*
X181057Y28705*
X180744Y29330*
X180120Y29642*
X179182*
X178557Y29330*
X172371Y81635D02*
X172059Y81323D01*
X171433Y81010*
X170496*
X169871Y81323*
X169559Y81635*
X169246Y82260*
Y83510*
X169559Y84135*
X169871Y84448*
X170496Y84760*
X171433*
X172059Y84448*
X172371Y84135*
X174871Y81010D02*
X176121D01*
X175496D02*
Y84760D01*
X174871Y84135*
X179871Y81010D02*
X181121D01*
X180496D02*
Y84760D01*
X179871Y84135*
X185474Y34625D02*
X185161Y34937D01*
X184849Y35563*
Y36500*
X185161Y37125*
X185474Y37437*
X186099Y37750*
X187349*
X187974Y37437*
X188287Y37125*
X188599Y36500*
Y35563*
X188287Y34937*
X187974Y34625*
X184849Y32125D02*
Y30875D01*
Y31500D02*
X188599D01*
X187974Y32125*
X185161Y27437D02*
X184849Y26813D01*
Y26187*
X185161Y25563*
X185787Y25250*
X186411Y25563*
X186724Y26187*
Y26813*
Y26187D02*
X187037Y25563D01*
X187661Y25250*
X188287Y25563*
X188599Y26187*
Y26813*
X188287Y27437*
X191958Y136950D02*
X191645Y136638D01*
X191020Y136325*
X190083*
X189458Y136638*
X189145Y136950*
X188833Y137575*
Y138825*
X189145Y139450*
X189458Y139763*
X190083Y140075*
X191020*
X191645Y139763*
X191958Y139450*
X194458Y136325D02*
X195708D01*
X195083D02*
Y140075D01*
X194458Y139450*
X198833Y137263D02*
X199145Y137888D01*
X199770Y138200*
X200395*
X201020Y137888*
X201333Y137263*
X201020Y136638*
X200395Y136325*
X199770*
X199145Y136638*
X198833Y137263*
Y138200*
X199145Y139138*
X199770Y139763*
X200395Y140075*
X191490Y23924D02*
Y27674D01*
X193678*
X194303Y27361*
X194615Y26736*
X194303Y26111*
X193678Y25799*
X191490*
X193678D02*
X194615Y23924D01*
X198990D02*
X196490D01*
X198678Y26111*
X198990Y26736*
X198678Y27361*
X198053Y27674*
X197115*
X196490Y27361*
X198552Y53486D02*
X198240Y53173D01*
X197615Y52861*
X196677*
X196052Y53173*
X195740Y53486*
X195427Y54111*
Y55361*
X195740Y55986*
X196052Y56298*
X196677Y56611*
X197615*
X198240Y56298*
X198552Y55986*
X201052Y52861D02*
X202302D01*
X201677D02*
Y56611D01*
X201052Y55986*
X206990Y52861D02*
Y56611D01*
X205427Y54111*
X207927*
X197593Y69888D02*
Y73638D01*
X199780*
X200405Y73326*
X200718Y72701*
X200405Y72076*
X199780Y71763*
X197593*
X202593Y73638D02*
Y69888D01*
X205718*
X208218D02*
X209468D01*
X208843D02*
Y73638D01*
X208218Y73013*
X201483Y31352D02*
X205233D01*
Y29165*
X204920Y28540*
X204295Y28227*
X203670Y28540*
X203358Y29165*
Y31352*
Y29165D02*
X201483Y28227D01*
X201795Y26040D02*
X201483Y25415D01*
Y24790*
X201795Y24165*
X202420Y23852*
X203045Y24165*
X203358Y24790*
Y25415*
Y24790D02*
X203670Y24165D01*
X204295Y23852*
X204920Y24165*
X205233Y24790*
Y25415*
X204920Y26040*
X209379Y12836D02*
X209067Y12524D01*
X208441Y12211*
X207504*
X206879Y12524*
X206567Y12836*
X206254Y13461*
Y14711*
X206567Y15336*
X206879Y15649*
X207504Y15961*
X208441*
X209067Y15649*
X209379Y15336*
X211567Y12524D02*
X212191Y12211D01*
X212817*
X213441Y12524*
X213754Y13149*
X213441Y13774*
X212817Y14086*
X212191*
X212817D02*
X213441Y14399D01*
X213754Y15024*
X213441Y15649*
X212817Y15961*
X212191*
X211567Y15649*
X209576Y21891D02*
X209263Y21579D01*
X208638Y21266*
X207701*
X207076Y21579*
X206763Y21891*
X206451Y22516*
Y23766*
X206763Y24391*
X207076Y24704*
X207701Y25016*
X208638*
X209263Y24704*
X209576Y24391*
X213013Y21266D02*
Y25016D01*
X211451Y22516*
X213951*
X208569Y49955D02*
X212319D01*
Y47767*
X212007Y47142*
X211382Y46830*
X210757Y47142*
X210444Y47767*
Y49955*
Y47767D02*
X208569Y46830D01*
Y44330D02*
Y43080D01*
Y43705D02*
X212319D01*
X211694Y44330*
X247470Y21891D02*
X247157Y21579D01*
X246532Y21266*
X245594*
X244970Y21579*
X244657Y21891*
X244344Y22516*
Y23766*
X244657Y24391*
X244970Y24704*
X245594Y25016*
X246532*
X247157Y24704*
X247470Y24391*
X249344Y22204D02*
X249657Y22829D01*
X250282Y23141*
X250907*
X251532Y22829*
X251844Y22204*
X251532Y21579*
X250907Y21266*
X250282*
X249657Y21579*
X249344Y22204*
Y23141*
X249657Y24079*
X250282Y24704*
X250907Y25016*
X247568Y12246D02*
X247256Y11933D01*
X246630Y11620*
X245693*
X245068Y11933*
X244756Y12246*
X244443Y12870*
Y14120*
X244756Y14746*
X245068Y15058*
X245693Y15370*
X246630*
X247256Y15058*
X247568Y14746*
X249443Y11620D02*
X251943Y15370D01*
X249443*
X255420Y23825D02*
X256670D01*
X256045D02*
Y27575D01*
X255420D02*
X256670D01*
X262607Y24450D02*
X262295Y24138D01*
X261670Y23825*
X260732*
X260107Y24138*
X259795Y24450*
X259482Y25075*
Y26325*
X259795Y26950*
X260107Y27263*
X260732Y27575*
X261670*
X262295Y27263*
X262607Y26950*
X266982Y23825D02*
X264482D01*
X266670Y26013*
X266982Y26638*
X266670Y27263*
X266045Y27575*
X265107*
X264482Y27263*
X258985Y49352D02*
X258673Y49039D01*
X258048Y48727*
X257110*
X256485Y49039*
X256173Y49352*
X255860Y49977*
Y51227*
X256173Y51852*
X256485Y52165*
X257110Y52477*
X258048*
X258673Y52165*
X258985Y51852*
X260860Y49039D02*
X261485Y48727D01*
X262423*
X263048Y49039*
X263360Y49665*
Y49977*
X263048Y50602*
X262423Y50915*
X260860*
Y52477*
X263360*
X262553Y76689D02*
Y73877D01*
X262866Y73252*
X263491Y72939*
X264741*
X265366Y73252*
X265678Y73877*
Y76689*
X270053Y72939D02*
X267553D01*
X269741Y75127*
X270053Y75752*
X269741Y76377*
X269116Y76689*
X268178*
X267553Y76377*
X303353Y34797D02*
X307103Y33235D01*
X303353Y31672*
X304915Y34172D02*
Y32297D01*
X303353Y29797D02*
X307103D01*
X303353Y26672*
X307103*
X303353Y23235D02*
X307103D01*
Y24797D02*
Y21672D01*
X303353Y19172D02*
Y17922D01*
Y18547D02*
X307103D01*
X306478Y19172*
D02*
D12*
X123577Y45526D02*
X140112D01*
X123577Y65211D02*
X140112D01*
X123577Y116234D02*
Y108518D01*
X159010*
Y116234*
X123577Y136234D02*
Y143951D01*
X159010*
Y136234*
X287061Y147474D02*
X340998D01*
Y37474*
X287061*
D02*
D13*
X75817Y16743D02*
G75*
G02Y15411J-666D01*
G01*
Y16743D02*
G75*
G02Y15411J-666D01*
G01*
G75*
G02Y16743J666*
G01*
X76140Y16159D02*
G75*
G02Y15994J-83D01*
G01*
Y16159D02*
G75*
G02Y15994J-83D01*
G01*
G75*
G02Y16159J83*
G01*
X218065Y28695D02*
G75*
G02Y27120J-787D01*
G01*
Y28695D02*
G75*
G02Y27120J-787D01*
G01*
G75*
G02Y28695J787*
G01*
D02*
D14*
X165415Y86376D02*
G75*
G02X166400I492D01*
G01*
X165415D02*
G75*
G02X166400I492D01*
G01*
G75*
G02X165415I-492*
G01*
X175998Y41589D02*
G75*
G02X176982I492D01*
G01*
X175998D02*
G75*
G02X176982I492D01*
G01*
G75*
G02X175998I-492*
G01*
D02*
D15*
X109444Y31468D02*
Y36768D01*
X121744*
Y31468*
X109444*
X133328Y93998D02*
X138628D01*
Y81698*
X133328*
Y93998*
X141301Y97345D02*
X146601D01*
Y85045*
X141301*
Y97345*
X146714Y37896D02*
X152014D01*
Y25596*
X146714*
Y37896*
X155416Y80459D02*
Y75159D01*
X143116*
Y80459*
X155416*
X160734Y74076D02*
Y79376D01*
X173034*
Y74076*
X160734*
X161321Y50144D02*
Y44844D01*
X149021*
Y50144*
X161321*
X168139Y31691D02*
Y36991D01*
X180439*
Y31691*
X168139*
X181502Y48289D02*
Y53589D01*
X193802*
Y48289*
X181502*
X191341Y44077D02*
Y38777D01*
X179041*
Y44077*
X191341*
X194395Y128801D02*
Y134101D01*
X206695*
Y128801*
X194395*
X208530Y147297D02*
X270734D01*
Y81156*
X208530*
Y112750*
X210006*
Y115703*
X208530*
Y147297*
X214868Y12954D02*
Y18254D01*
X227168*
Y12954*
X214868*
Y19057D02*
Y24357D01*
X227168*
Y19057*
X214868*
X230517Y13053D02*
Y18353D01*
X242817*
Y13053*
X230517*
Y19057D02*
Y24357D01*
X242817*
Y19057*
X230517*
X260479Y54730D02*
X255179D01*
Y67030*
X260479*
Y54730*
D02*
D16*
X198668Y30025D02*
X193368D01*
Y42325*
X198668*
Y30025*
X205951Y33667D02*
X200651D01*
Y45967*
X205951*
Y33667*
X207639Y40750D02*
X212939D01*
Y28450*
X207639*
Y40750*
D02*
D17*
X170939Y57455D02*
X210939D01*
Y67455*
X170939*
Y57455*
X0Y0D02*
M02*
