G04 DesignSpark PCB Gerber Version 9.0 Build 5115 *
%FSLAX35Y35*%
%MOIN*%
%ADD88R,0.00781X0.02750*%
%ADD85R,0.01962X0.05407*%
%ADD99R,0.02946X0.03537*%
%ADD94R,0.03537X0.03891*%
%ADD98R,0.04718X0.06687*%
%ADD92R,0.06883X0.15742*%
%ADD84R,0.07474X0.16135*%
%ADD89R,0.06490X0.06490*%
%ADD91R,0.15348X0.15348*%
%ADD90R,0.21254X0.21254*%
%ADD96R,0.01962X0.00486*%
%ADD87R,0.02750X0.00781*%
%ADD83R,0.03143X0.01962*%
%ADD86R,0.05407X0.01962*%
%ADD93R,0.03891X0.03537*%
%ADD95R,0.03930X0.03540*%
%ADD97R,0.09600X0.07592*%
%ADD124C,0.03347*%
X0Y0D02*
D02*
D83*
X130083Y30378D03*
Y34118D03*
Y37858D03*
X141106Y30378D03*
Y37858D03*
D02*
D84*
X125545Y126234D03*
X157041D03*
D02*
D85*
X222789Y29234D03*
Y62604D03*
X225939Y29234D03*
Y62604D03*
X229089Y29234D03*
Y62604D03*
X232238Y29234D03*
Y62604D03*
X235388Y29234D03*
Y62604D03*
X238537Y29234D03*
Y62604D03*
X241687Y29234D03*
Y62604D03*
X244837Y29234D03*
Y62604D03*
D02*
D86*
X217128Y34896D03*
Y38045D03*
Y41195D03*
Y44344D03*
Y47494D03*
Y50644D03*
Y53793D03*
Y56943D03*
X250498Y34896D03*
Y38045D03*
Y41195D03*
Y44344D03*
Y47494D03*
Y50644D03*
Y53793D03*
Y56943D03*
D02*
D87*
X152522Y89329D03*
Y91297D03*
Y93266D03*
X164333Y89329D03*
Y91297D03*
Y93266D03*
D02*
D88*
X156459Y85392D03*
Y97203D03*
X158427Y85392D03*
Y97203D03*
X160396Y85392D03*
Y97203D03*
D02*
D89*
X158427Y91297D03*
D02*
D90*
X76132Y32589D03*
Y132982D03*
D02*
D91*
Y82785D03*
D02*
D92*
X124659Y55368D03*
X139030D03*
D02*
D93*
X112094Y34118D03*
X119094D03*
X145766Y77809D03*
X151671Y47494D03*
X152766Y77809D03*
X158671Y47494D03*
X163384Y76726D03*
X170384D03*
X170789Y34341D03*
X177789D03*
X181691Y41427D03*
X184152Y50939D03*
X188691Y41427D03*
X191152Y50939D03*
X197045Y131451D03*
X204045D03*
X217518Y15604D03*
Y21707D03*
X224518Y15604D03*
Y21707D03*
X233167Y15703D03*
Y21707D03*
X240167Y15703D03*
Y21707D03*
D02*
D94*
X135978Y84348D03*
Y91348D03*
X143951Y87695D03*
Y94695D03*
X149364Y28246D03*
Y35246D03*
X257829Y57380D03*
Y64380D03*
D02*
D95*
X196018Y32675D03*
Y39675D03*
X203301Y36317D03*
Y43317D03*
X210289Y31100D03*
Y38100D03*
D02*
D96*
X167337Y43951D03*
Y45526D03*
Y47100D03*
Y48675D03*
Y50250D03*
X174817Y43951D03*
Y45526D03*
Y47100D03*
Y48675D03*
Y50250D03*
D02*
D97*
X287061Y42278D03*
Y62356D03*
Y82435D03*
Y102514D03*
Y122593D03*
Y142671D03*
D02*
D98*
X212073Y85683D03*
Y142770D03*
X219947Y85683D03*
Y142770D03*
X227821Y85683D03*
Y142770D03*
X235695Y85683D03*
Y142770D03*
X243569Y85683D03*
Y142770D03*
X251443Y85683D03*
Y142770D03*
X259317Y85683D03*
Y142770D03*
X267191Y85683D03*
Y142770D03*
D02*
D99*
X156695Y26868D03*
X162994D03*
D02*
D124*
X182730Y22494D03*
X199955Y118656D03*
X203990Y108419D03*
X204482Y49659D03*
X0Y0D02*
M02*
