G04 DesignSpark PCB Gerber Version 9.0 Build 5115 *
%FSLAX35Y35*%
%MOIN*%
%ADD105R,0.01781X0.03750*%
%ADD102R,0.02962X0.06407*%
%ADD116R,0.03946X0.04537*%
%ADD111R,0.04537X0.04891*%
%ADD115R,0.05718X0.07687*%
%ADD109R,0.07883X0.16742*%
%ADD101R,0.08474X0.17135*%
%ADD117R,0.06600X0.06600*%
%ADD106R,0.07490X0.07490*%
%ADD108R,0.16348X0.16348*%
%ADD107R,0.22254X0.22254*%
%ADD113R,0.02962X0.01486*%
%ADD104R,0.03750X0.01781*%
%ADD100R,0.04143X0.02962*%
%ADD103R,0.06407X0.02962*%
%ADD110R,0.04891X0.04537*%
%ADD112R,0.04930X0.04540*%
%ADD119C,0.03002*%
%ADD120C,0.03800*%
%ADD114R,0.10600X0.08592*%
%ADD118C,0.06200*%
X0Y0D02*
D02*
D100*
X130083Y30378D03*
Y34118D03*
Y37858D03*
X141106Y30378D03*
Y37858D03*
D02*
D101*
X125545Y126234D03*
X157041D03*
D02*
D102*
X222789Y29234D03*
Y62604D03*
X225939Y29234D03*
Y62604D03*
X229089Y29234D03*
Y62604D03*
X232238Y29234D03*
Y62604D03*
X235388Y29234D03*
Y62604D03*
X238537Y29234D03*
Y62604D03*
X241687Y29234D03*
Y62604D03*
X244837Y29234D03*
Y62604D03*
D02*
D103*
X217128Y34896D03*
Y38045D03*
Y41195D03*
Y44344D03*
Y47494D03*
Y50644D03*
Y53793D03*
Y56943D03*
X250498Y34896D03*
Y38045D03*
Y41195D03*
Y44344D03*
Y47494D03*
Y50644D03*
Y53793D03*
Y56943D03*
D02*
D104*
X152522Y89329D03*
Y91297D03*
Y93266D03*
X164333Y89329D03*
Y91297D03*
Y93266D03*
D02*
D105*
X156459Y85392D03*
Y97203D03*
X158427Y85392D03*
Y97203D03*
X160396Y85392D03*
Y97203D03*
D02*
D106*
X158427Y91297D03*
D02*
D107*
X76132Y32589D03*
Y132982D03*
D02*
D108*
Y82785D03*
D02*
D109*
X124659Y55368D03*
X139030D03*
D02*
D110*
X112094Y34118D03*
X119094D03*
X145766Y77809D03*
X151671Y47494D03*
X152766Y77809D03*
X158671Y47494D03*
X163384Y76726D03*
X170384D03*
X170789Y34341D03*
X177789D03*
X181691Y41427D03*
X184152Y50939D03*
X188691Y41427D03*
X191152Y50939D03*
X197045Y131451D03*
X204045D03*
X217518Y15604D03*
Y21707D03*
X224518Y15604D03*
Y21707D03*
X233167Y15703D03*
Y21707D03*
X240167Y15703D03*
Y21707D03*
D02*
D111*
X135978Y84348D03*
Y91348D03*
X143951Y87695D03*
Y94695D03*
X149364Y28246D03*
Y35246D03*
X257829Y57380D03*
Y64380D03*
D02*
D112*
X196018Y32675D03*
Y39675D03*
X203301Y36317D03*
Y43317D03*
X210289Y31100D03*
Y38100D03*
D02*
D113*
X167337Y43951D03*
Y45526D03*
Y47100D03*
Y48675D03*
Y50250D03*
X174817Y43951D03*
Y45526D03*
Y47100D03*
Y48675D03*
Y50250D03*
D02*
D114*
X287061Y42278D03*
Y62356D03*
Y82435D03*
Y102514D03*
Y122593D03*
Y142671D03*
D02*
D115*
X212073Y85683D03*
Y142770D03*
X219947Y85683D03*
Y142770D03*
X227821Y85683D03*
Y142770D03*
X235695Y85683D03*
Y142770D03*
X243569Y85683D03*
Y142770D03*
X251443Y85683D03*
Y142770D03*
X259317Y85683D03*
Y142770D03*
X267191Y85683D03*
Y142770D03*
D02*
D116*
X156695Y26868D03*
X162994D03*
D02*
D117*
X175939Y62455D03*
X185939D03*
X195939D03*
X205939D03*
D02*
D118*
X76136Y69148D03*
Y96116D03*
X135781Y23085D03*
X192967Y88439D03*
D02*
D119*
X124856Y34108D03*
X141490Y103793D03*
X159896Y103695D03*
X162553Y42179D03*
X164719Y104384D03*
X170821Y40407D03*
X184404Y36569D03*
X189719Y32533D03*
X197199Y51234D03*
X200545Y95722D03*
X203695Y126333D03*
X211470Y95722D03*
X212061Y91884D03*
X216884Y31254D03*
X224266Y34994D03*
X242179Y42671D03*
X243163Y68852D03*
X250742Y62848D03*
X253596Y29581D03*
X258026Y44148D03*
X259010Y149266D03*
X269344Y78793D03*
X271313Y44148D03*
X279778Y42376D03*
Y62258D03*
Y82337D03*
Y102612D03*
Y122494D03*
D02*
D120*
X123183Y41982D03*
X150447Y84502D03*
X151530Y41392D03*
X151628Y56648D03*
X166293Y84108D03*
X212061Y18656D03*
X246707D03*
X0Y0D02*
M02*
