G05
M48
INCH,TZ
FMAT,2
T1C00.012
T2C00.016
T3C00.032
T4C00.035
%
T001
X1.249Y0.341
X1.415Y1.038
X1.599Y1.037
X1.626Y0.422
X1.647Y1.044
X1.708Y0.404
X1.844Y0.366
X1.897Y0.325
X1.972Y0.512
X2.005Y0.957
X2.037Y1.263
X2.115Y0.957
X2.121Y0.919
X2.169Y0.313
X2.243Y0.350
X2.422Y0.427
X2.432Y0.689
X2.507Y0.628
X2.536Y0.296
X2.580Y0.441
X2.590Y1.493
X2.693Y0.788
X2.713Y0.441
X2.798Y0.424
X2.798Y0.623
X2.798Y0.823
X2.798Y1.026
X2.798Y1.225
T002
X1.232Y0.420
X1.504Y0.845
X1.515Y0.414
X1.516Y0.566
X1.663Y0.841
X2.121Y0.187
X2.467Y0.187
T003
X0.761Y0.691
X0.761Y0.961
X1.358Y0.231
X1.930Y0.884
T004
X1.759Y0.625
X1.859Y0.625
X1.959Y0.625
X2.059Y0.625
M30
