G04 EasyPC Gerber Version 21.0.3 Build 4286 *
G04 #@! TF.Part,Single*
G04 #@! TF.FileFunction,Copper,L2,Bot *
G04 #@! TF.FilePolarity,Positive *
%FSLAX35Y35*%
%MOIN*%
G04 #@! TA.AperFunction,ComponentPad*
%ADD76R,0.06000X0.06000*%
G04 #@! TD.AperFunction*
%ADD15C,0.00500*%
%ADD18C,0.00827*%
%ADD81C,0.01181*%
%ADD80C,0.01969*%
G04 #@! TA.AperFunction,ViaPad*
%ADD78C,0.02402*%
%ADD79C,0.03200*%
%ADD77C,0.05600*%
X0Y0D02*
D02*
D15*
X5762Y158222D02*
Y4974D01*
X286864*
Y158222*
X5762*
X148951Y56648D02*
G75*
G02X154305I2677D01*
G01*
G75*
G02X151109Y54022I-2677*
G01*
X149827Y52740*
G75*
G02X148772Y52303I-1054J1054*
G01*
X136005*
X125854Y42152*
G75*
G02X125860Y41982I-2669J-172*
G01*
G75*
G02X120506I-2677*
G01*
G75*
G02X124014Y44527I2677*
G01*
X134334Y54847*
G75*
G02X135389Y55283I1054J-1054*
G01*
X148156*
X149002Y56129*
G75*
G02X148951Y56648I2625J519*
G01*
X166208Y106107D02*
G75*
G02X166996Y104384I-1489J-1723D01*
G01*
G75*
G02X162441I-2278*
G01*
G75*
G02X162906Y105763I2278J0*
G01*
X160952Y107717*
X147226*
X143728Y104219*
G75*
G02X143768Y103793I-2237J-426*
G01*
G75*
G02X139213I-2278*
G01*
G75*
G02X141361Y106067I2278*
G01*
X145555Y110260*
G75*
G02X146609Y110697I1054J-1054*
G01*
X161568*
G75*
G02X162622Y110260I1J-1490*
G01*
X165772Y107111*
G75*
G02X166208Y106107I-1053J-1054*
G01*
X188749Y34594D02*
G75*
G02X191996Y32533I969J-2061D01*
G01*
G75*
G02X187830Y31260I-2278*
G01*
X166886*
G75*
G02X165705Y31748I-3J1668*
G01*
X161374Y36079*
G75*
G02X160886Y37258I1179J1179*
G01*
Y40628*
G75*
G02X160276Y42179I1667J1552*
G01*
G75*
G02X164831I2278*
G01*
G75*
G02X164220Y40628I-2278*
G01*
Y37948*
X167574Y34594*
X188749*
X171862Y66531D02*
X180016D01*
Y58378*
X171862*
Y66531*
X189090Y88439D02*
G75*
G02X196843I3877D01*
G01*
G75*
G02X195185Y85260I-3877*
G01*
Y78163*
G75*
G02X194540Y76600I-2219*
G01*
X188157Y70163*
Y66531*
X190016*
Y58378*
X181862*
Y66531*
X183720*
Y71077*
G75*
G02X184365Y72641I2219*
G01*
X190748Y79077*
Y85260*
G75*
G02X189090Y88439I2219J3179*
G01*
X191862Y66531D02*
X200016D01*
Y58378*
X191862*
Y66531*
X209748Y97213D02*
G75*
G02X213748Y95722I1722J-1490D01*
G01*
G75*
G02X209748Y94232I-2278*
G01*
X202268*
G75*
G02X198268Y95722I-1722J1490*
G01*
G75*
G02X202268Y97213I2278*
G01*
X209748*
X201862Y66531D02*
X210016D01*
Y58378*
X201862*
Y66531*
X269591Y45638D02*
G75*
G02X273591Y44148I1722J-1490D01*
G01*
G75*
G02X269591Y42657I-2278*
G01*
X259748*
G75*
G02X255748Y44148I-1722J1490*
G01*
G75*
G02X259748Y45638I2278*
G01*
X269591*
X164813Y37356D02*
G36*
X167574Y34594D01*
X188749*
G75*
G02X191996Y32533I969J-2061*
G01*
G75*
G02X187830Y31260I-2278*
G01*
X166886*
G75*
G02X165705Y31748I-2J1668*
G01*
X161374Y36079*
G75*
G02X160886Y37257I1178J1178*
G01*
G75*
G02Y37258I2148J0*
G01*
Y37356*
X6012*
Y5224*
X286614*
Y37356*
X164813*
G37*
X160886D02*
G36*
Y40628D01*
G75*
G02X160276Y42179I1666J1551*
G01*
Y42179*
G75*
G02X161407Y44148I2278*
G01*
X127850*
X125854Y42152*
G75*
G02X125860Y41982I-3062J-184*
G01*
G75*
G02X120506I-2677*
G01*
G75*
G02X121609Y44148I2677*
G01*
X6012*
Y37356*
X160886*
G37*
X164813D02*
G36*
X286614D01*
Y44148*
X273591*
G75*
G02X269591Y42657I-2278*
G01*
X259748*
G75*
G02X255748Y44148I-1722J1490*
G01*
X163699*
G75*
G02X164831Y42179I-1146J-1969*
G01*
Y42179*
G75*
G02X164220Y40628I-2276*
G01*
Y37948*
X164813Y37356*
G37*
X128802Y49315D02*
G36*
X6012D01*
Y44148*
X121609*
G75*
G02X124014Y44527I1574J-2165*
G01*
X128802Y49315*
G37*
X163699Y44148D02*
G36*
X255748D01*
G75*
G02X259748Y45638I2278*
G01*
X269591*
G75*
G02X273591Y44148I1722J-1490*
G01*
X286614*
Y49315*
X133017*
X127850Y44148*
X161407*
G75*
G02X163699I1146J-1969*
G01*
G37*
X210016Y62455D02*
G36*
Y58378D01*
X201862*
Y62455*
X200016*
Y58378*
X191862*
Y62455*
X190016*
Y58378*
X181862*
Y62455*
X180016*
Y58378*
X171862*
Y62455*
X6012*
Y49315*
X128802*
X134334Y54847*
G75*
G02X135389Y55283I1054J-1054*
G01*
X148156*
X149002Y56129*
G75*
G02X148951Y56645I2593J516*
G01*
G75*
G02Y56648I2547J2*
G01*
G75*
G02X154305I2677*
G01*
Y56647*
G75*
G02X151109Y54022I-2676*
G01*
X149827Y52740*
G75*
G02X148772Y52303I-1054J1054*
G01*
X136005*
X133017Y49315*
X286614*
Y62455*
X210016*
G37*
X6012Y95722D02*
G36*
Y62455D01*
X171862*
Y66531*
X180016*
Y62455*
X181862*
Y66531*
X183720*
Y71077*
G75*
G02X184365Y72641I2221J-1*
G01*
X190748Y79077*
Y85260*
G75*
G02X189090Y88439I2217J3179*
G01*
Y88439*
G75*
G02X196843I3877*
G01*
Y88439*
G75*
G02X195185Y85260I-3876*
G01*
Y78163*
G75*
G02X194540Y76600I-2221J1*
G01*
X188157Y70163*
Y66531*
X190016*
Y62455*
X191862*
Y66531*
X200016*
Y62455*
X201862*
Y66531*
X210016*
Y62455*
X286614*
Y95722*
X213748*
G75*
G02X209748Y94232I-2278*
G01*
X202268*
G75*
G02X198268Y95722I-1722J1490*
G01*
X6012*
G37*
Y106106D02*
G36*
Y95722D01*
X198268*
G75*
G02X202268Y97213I2278*
G01*
X209748*
G75*
G02X213748Y95722I1722J-1490*
G01*
X286614*
Y106106*
X166209*
G75*
G02X166996Y104385I-1489J-1722*
G01*
G75*
G02Y104384I-2506J0*
G01*
G75*
G02X162441I-2278*
G01*
G75*
G02X162906Y105763I2278*
G01*
X162562Y106106*
X145615*
X143728Y104219*
G75*
G02X143768Y103793I-2274J-429*
G01*
G75*
G02X139213I-2278*
G01*
G75*
G02X141361Y106067I2278*
G01*
X141400Y106106*
X6012*
G37*
X166209D02*
G36*
X286614D01*
Y157972*
X6012*
Y106106*
X141400*
X145555Y110260*
G75*
G02X146609Y110697I1054J-1054*
G01*
X161568*
G75*
G02X162622Y110260I0J-1491*
G01*
X165772Y107111*
G75*
G02X166208Y106107I-1052J-1054*
G01*
G75*
G02X166209Y106106I-1504J-1504*
G01*
G37*
X162562D02*
G36*
X160952Y107717D01*
X147226*
X145615Y106106*
X162562*
G37*
D02*
D18*
X123183Y41982D02*
X123577D01*
X135388Y53793*
X148774*
X151628Y56648*
X141490Y103793D02*
Y104089D01*
X146608Y109207*
X161569*
X164719Y106057*
Y104384*
X173352Y62455D02*
X171699D01*
X175939Y59868D02*
Y58215D01*
Y65041D02*
Y66695D01*
X178526Y62455D02*
X180179D01*
X200545Y95722D02*
X211470D01*
X271313Y44148D02*
X258026D01*
D02*
D76*
X175939Y62455D03*
X185939D03*
X195939D03*
X205939D03*
D02*
D77*
X76136Y69148D03*
Y96116D03*
X135781Y23085D03*
X192967Y88439D03*
D02*
D78*
X141490Y103793D03*
X159896Y103695D03*
X162553Y42179D03*
X164719Y104384D03*
X170821Y40407D03*
X184797Y36274D03*
X189719Y32533D03*
X199364Y53400D03*
X200545Y95722D03*
X204679Y17967D03*
X211470Y95722D03*
X212258Y30565D03*
X212947Y92573D03*
X250742Y62848D03*
X253104Y18163D03*
X254285Y148478D03*
X258026Y44148D03*
X269344Y78793D03*
X271313Y44148D03*
X279778Y42376D03*
Y62258D03*
Y82337D03*
Y102612D03*
Y122494D03*
D02*
D79*
X123183Y41982D03*
X150447Y84502D03*
X151628Y56648D03*
X157238Y33911D03*
X166293Y84108D03*
D02*
D80*
X185939Y62455D02*
X185880D01*
Y71077*
X192967Y78163*
Y88439*
D02*
D81*
X162553Y42179D02*
Y37258D01*
X166884Y32927*
X189325*
X189719Y32533*
X0Y0D02*
M02*
