G04 EasyPC Gerber Version 21.0.3 Build 4286 *
G04 #@! TF.Part,Single*
G04 #@! TF.FileFunction,Soldermask,Bot *
G04 #@! TF.FilePolarity,Negative *
%FSLAX35Y35*%
%MOIN*%
G04 #@! TA.AperFunction,ComponentPad*
%ADD117R,0.06600X0.06600*%
G04 #@! TA.AperFunction,ViaPad*
%ADD119C,0.03002*%
%ADD120C,0.03800*%
%ADD118C,0.06200*%
X0Y0D02*
D02*
D117*
X175939Y62455D03*
X185939D03*
X195939D03*
X205939D03*
D02*
D118*
X76136Y69148D03*
Y96116D03*
X135781Y23085D03*
X192967Y88439D03*
D02*
D119*
X141490Y103793D03*
X159896Y103695D03*
X162553Y42179D03*
X164719Y104384D03*
X170821Y40407D03*
X184797Y36274D03*
X189719Y32533D03*
X199364Y53400D03*
X200545Y95722D03*
X204679Y17967D03*
X211470Y95722D03*
X212258Y30565D03*
X212947Y92573D03*
X250742Y62848D03*
X253104Y18163D03*
X254285Y148478D03*
X258026Y44148D03*
X269344Y78793D03*
X271313Y44148D03*
X279778Y42376D03*
Y62258D03*
Y82337D03*
Y102612D03*
Y122494D03*
D02*
D120*
X123183Y41982D03*
X150447Y84502D03*
X151628Y56648D03*
X157238Y33911D03*
X166293Y84108D03*
X0Y0D02*
M02*
