G04 EasyPC Gerber Version 21.0.3 Build 4286 *
G04 #@! TF.Part,Single*
G04 #@! TF.FileFunction,Legend,Top *
G04 #@! TF.FilePolarity,Positive *
%FSLAX35Y35*%
%MOIN*%
%ADD12C,0.00394*%
%ADD15C,0.00500*%
%ADD11C,0.00591*%
%ADD10C,0.00787*%
%ADD16C,0.00800*%
%ADD14C,0.00984*%
%ADD17C,0.01000*%
%ADD13C,0.01575*%
X0Y0D02*
D02*
D10*
X63045Y41250D02*
X33219D01*
Y124321*
X63045*
X89219Y41250D02*
X111959D01*
Y124321*
X89219*
X128311Y40024D02*
X131854D01*
X133232Y39827D02*
X137957D01*
Y28409*
X133232*
Y39827*
X159844Y28049D02*
Y25687D01*
X171766Y43163D02*
X170388D01*
Y51037*
X171766*
Y43163*
X221411Y33518D02*
Y58321D01*
X246215*
Y33518*
X221411*
X280762Y142081D02*
G75*
G02Y142868J394D01*
G01*
Y142081D02*
G75*
G03Y142868J394D01*
G01*
D02*
D11*
X41826Y80911D02*
X44639D01*
X45264Y81224*
X45576Y81849*
Y83099*
X45264Y83724*
X44639Y84037*
X41826*
X45576Y86537D02*
Y87787D01*
Y87161D02*
X41826D01*
X42451Y86537*
X113513Y25730D02*
X113200Y25417D01*
X112575Y25105*
X111638*
X111013Y25417*
X110700Y25730*
X110388Y26355*
Y27605*
X110700Y28230*
X111013Y28543*
X111638Y28855*
X112575*
X113200Y28543*
X113513Y28230*
X116013Y25105D02*
X117263D01*
X116638D02*
Y28855D01*
X116013Y28230*
X119148Y71178D02*
Y67428D01*
X122273*
X124773D02*
X126023D01*
X125398D02*
Y71178D01*
X124773Y70553*
X126997Y89903D02*
X126685Y89591D01*
X126059Y89278*
X125122*
X124497Y89591*
X124185Y89903*
X123872Y90528*
Y91778*
X124185Y92403*
X124497Y92716*
X125122Y93028*
X126059*
X126685Y92716*
X126997Y92403*
X129809Y89278D02*
X130435Y89591D01*
X131059Y90216*
X131372Y91153*
Y92091*
X131059Y92716*
X130435Y93028*
X129809*
X129185Y92716*
X128872Y92091*
X129185Y91466*
X129809Y91153*
X130435*
X131059Y91466*
X131372Y92091*
X130124Y22152D02*
X131374D01*
X130750D02*
Y25902D01*
X130124D02*
X131374D01*
X137312Y22777D02*
X137000Y22465D01*
X136374Y22152*
X135437*
X134812Y22465*
X134500Y22777*
X134187Y23402*
Y24652*
X134500Y25277*
X134812Y25590*
X135437Y25902*
X136374*
X137000Y25590*
X137312Y25277*
X139812Y22152D02*
X141062D01*
X140437D02*
Y25902D01*
X139812Y25277*
X134871Y96694D02*
X134559Y96382D01*
X133933Y96069*
X132996*
X132371Y96382*
X132059Y96694*
X131746Y97319*
Y98569*
X132059Y99194*
X132371Y99507*
X132996Y99819*
X133933*
X134559Y99507*
X134871Y99194*
X137683Y97944D02*
X138309D01*
X138933Y98257*
X139246Y98882*
X138933Y99507*
X138309Y99819*
X137683*
X137059Y99507*
X136746Y98882*
X137059Y98257*
X137683Y97944*
X137059Y97632*
X136746Y97007*
X137059Y96382*
X137683Y96069*
X138309*
X138933Y96382*
X139246Y97007*
X138933Y97632*
X138309Y97944*
X136372Y142241D02*
Y138491D01*
X139497*
X141372Y139428D02*
X141685Y138803D01*
X142309Y138491*
X143559*
X144185Y138803*
X144497Y139428*
X144185Y140053*
X143559Y140366*
X142309*
X141685Y140678*
X141372Y141303*
X141685Y141928*
X142309Y142241*
X143559*
X144185Y141928*
X144497Y141303*
X146997Y138491D02*
X148247D01*
X147622D02*
Y142241D01*
X146997Y141616*
X143041Y70317D02*
X142728Y70004D01*
X142103Y69691*
X141165*
X140541Y70004*
X140228Y70317*
X139915Y70941*
Y72191*
X140228Y72817*
X140541Y73129*
X141165Y73441*
X142103*
X142728Y73129*
X143041Y72817*
X145541Y69691D02*
X146791D01*
X146165D02*
Y73441D01*
X145541Y72817*
X150228Y70004D02*
X150853Y69691D01*
X151478*
X152103Y70004*
X152415Y70629*
Y72504*
X152103Y73129*
X151478Y73441*
X150853*
X150228Y73129*
X149915Y72504*
Y70629*
X150228Y70004*
X152103Y73129*
X149438Y53191D02*
X149126Y52878D01*
X148500Y52565*
X147563*
X146938Y52878*
X146626Y53191*
X146313Y53815*
Y55065*
X146626Y55691*
X146938Y56003*
X147563Y56315*
X148500*
X149126Y56003*
X149438Y55691*
X151938Y52565D02*
X153188D01*
X152563D02*
Y56315D01*
X151938Y55691*
X156313Y52878D02*
X156938Y52565D01*
X157876*
X158500Y52878*
X158813Y53503*
Y53815*
X158500Y54441*
X157876Y54753*
X156313*
Y56315*
X158813*
X156489Y31309D02*
X156177Y30996D01*
X155552Y30683*
X154614*
X153989Y30996*
X153677Y31309*
X153364Y31933*
Y33183*
X153677Y33809*
X153989Y34121*
X154614Y34433*
X155552*
X156177Y34121*
X156489Y33809*
X160864Y30683D02*
X158364D01*
X160552Y32871*
X160864Y33496*
X160552Y34121*
X159927Y34433*
X158989*
X158364Y34121*
X153844Y19306D02*
Y23056D01*
X156970*
X156344Y21181D02*
X153844D01*
X161032D02*
X161657Y20868D01*
X161970Y20243*
X161657Y19618*
X161032Y19306*
X158844*
Y23056*
X161032*
X161657Y22743*
X161970Y22118*
X161657Y21493*
X161032Y21181*
X158844*
X164470Y19306D02*
X165720D01*
X165094D02*
Y23056D01*
X164470Y22431*
X164672Y96857D02*
X165922D01*
X165297D02*
Y100607D01*
X164672D02*
X165922D01*
X171859Y97482D02*
X171547Y97169D01*
X170922Y96857*
X169984*
X169359Y97169*
X169047Y97482*
X168734Y98107*
Y99357*
X169047Y99982*
X169359Y100294*
X169984Y100607*
X170922*
X171547Y100294*
X171859Y99982*
X174047Y97169D02*
X174672Y96857D01*
X175297*
X175922Y97169*
X176234Y97794*
X175922Y98419*
X175297Y98732*
X174672*
X175297D02*
X175922Y99044D01*
X176234Y99669*
X175922Y100294*
X175297Y100607*
X174672*
X174047Y100294*
X164128Y38294D02*
X165691Y42044D01*
X167253Y38294*
X164753Y39856D02*
X166628D01*
X172253Y38919D02*
X171941Y38606D01*
X171315Y38294*
X170378*
X169753Y38606*
X169441Y38919*
X169128Y39544*
Y40794*
X169441Y41419*
X169753Y41731*
X170378Y42044*
X171315*
X171941Y41731*
X172253Y41419*
X176628Y38294D02*
X174128D01*
X176315Y40481*
X176628Y41106*
X176315Y41731*
X175691Y42044*
X174753*
X174128Y41731*
X172371Y26025D02*
X172059Y25713D01*
X171433Y25400*
X170496*
X169871Y25713*
X169559Y26025*
X169246Y26650*
Y27900*
X169559Y28525*
X169871Y28838*
X170496Y29150*
X171433*
X172059Y28838*
X172371Y28525*
X174871Y25400D02*
X176121D01*
X175496D02*
Y29150D01*
X174871Y28525*
X181746Y25400D02*
X179246D01*
X181433Y27588*
X181746Y28213*
X181433Y28838*
X180809Y29150*
X179871*
X179246Y28838*
X172371Y81635D02*
X172059Y81323D01*
X171433Y81010*
X170496*
X169871Y81323*
X169559Y81635*
X169246Y82260*
Y83510*
X169559Y84135*
X169871Y84448*
X170496Y84760*
X171433*
X172059Y84448*
X172371Y84135*
X174871Y81010D02*
X176121D01*
X175496D02*
Y84760D01*
X174871Y84135*
X179871Y81010D02*
X181121D01*
X180496D02*
Y84760D01*
X179871Y84135*
X184478Y34293D02*
X184165Y33980D01*
X183540Y33668*
X182602*
X181978Y33980*
X181665Y34293*
X181352Y34918*
Y36168*
X181665Y36793*
X181978Y37106*
X182602Y37418*
X183540*
X184165Y37106*
X184478Y36793*
X186978Y33668D02*
X188228D01*
X187602D02*
Y37418D01*
X186978Y36793*
X191665Y33980D02*
X192290Y33668D01*
X192915*
X193540Y33980*
X193852Y34606*
X193540Y35230*
X192915Y35543*
X192290*
X192915D02*
X193540Y35856D01*
X193852Y36480*
X193540Y37106*
X192915Y37418*
X192290*
X191665Y37106*
X191958Y136950D02*
X191645Y136638D01*
X191020Y136325*
X190083*
X189458Y136638*
X189145Y136950*
X188833Y137575*
Y138825*
X189145Y139450*
X189458Y139763*
X190083Y140075*
X191020*
X191645Y139763*
X191958Y139450*
X194458Y136325D02*
X195708D01*
X195083D02*
Y140075D01*
X194458Y139450*
X198833Y137263D02*
X199145Y137888D01*
X199770Y138200*
X200395*
X201020Y137888*
X201333Y137263*
X201020Y136638*
X200395Y136325*
X199770*
X199145Y136638*
X198833Y137263*
Y138200*
X199145Y139138*
X199770Y139763*
X200395Y140075*
X193951Y24317D02*
Y28067D01*
X196138*
X196763Y27755*
X197076Y27130*
X196763Y26505*
X196138Y26193*
X193951*
X196138D02*
X197076Y24317D01*
X201451D02*
X198951D01*
X201138Y26505*
X201451Y27130*
X201138Y27755*
X200513Y28067*
X199576*
X198951Y27755*
X198552Y53486D02*
X198240Y53173D01*
X197615Y52861*
X196677*
X196052Y53173*
X195740Y53486*
X195427Y54111*
Y55361*
X195740Y55986*
X196052Y56298*
X196677Y56611*
X197615*
X198240Y56298*
X198552Y55986*
X201052Y52861D02*
X202302D01*
X201677D02*
Y56611D01*
X201052Y55986*
X206990Y52861D02*
Y56611D01*
X205427Y54111*
X207927*
X197593Y69888D02*
Y73638D01*
X199780*
X200405Y73326*
X200718Y72701*
X200405Y72076*
X199780Y71763*
X197593*
X202593Y73638D02*
Y69888D01*
X205718*
X208218D02*
X209468D01*
X208843D02*
Y73638D01*
X208218Y73013*
X203006Y28353D02*
Y32103D01*
X205193*
X205819Y31791*
X206131Y31165*
X205819Y30541*
X205193Y30228*
X203006*
X205193D02*
X206131Y28353D01*
X208319Y28665D02*
X208943Y28353D01*
X209569*
X210193Y28665*
X210506Y29291*
X210193Y29915*
X209569Y30228*
X208943*
X209569D02*
X210193Y30541D01*
X210506Y31165*
X210193Y31791*
X209569Y32103*
X208943*
X208319Y31791*
X209576Y14509D02*
X209263Y14197D01*
X208638Y13884*
X207701*
X207076Y14197*
X206763Y14509*
X206451Y15134*
Y16384*
X206763Y17009*
X207076Y17322*
X207701Y17634*
X208638*
X209263Y17322*
X209576Y17009*
X211763Y14197D02*
X212388Y13884D01*
X213013*
X213638Y14197*
X213951Y14822*
X213638Y15447*
X213013Y15759*
X212388*
X213013D02*
X213638Y16072D01*
X213951Y16697*
X213638Y17322*
X213013Y17634*
X212388*
X211763Y17322*
X209576Y21006D02*
X209263Y20693D01*
X208638Y20380*
X207701*
X207076Y20693*
X206763Y21006*
X206451Y21630*
Y22880*
X206763Y23506*
X207076Y23818*
X207701Y24130*
X208638*
X209263Y23818*
X209576Y23506*
X213013Y20380D02*
Y24130D01*
X211451Y21630*
X213951*
X224219Y52369D02*
X225469D01*
X224844D02*
Y56119D01*
X224219D02*
X225469D01*
X231407Y52994D02*
X231094Y52681D01*
X230469Y52369*
X229531*
X228907Y52681*
X228594Y52994*
X228281Y53619*
Y54869*
X228594Y55494*
X228907Y55806*
X229531Y56119*
X230469*
X231094Y55806*
X231407Y55494*
X235781Y52369D02*
X233281D01*
X235469Y54556*
X235781Y55181*
X235469Y55806*
X234844Y56119*
X233907*
X233281Y55806*
X247470Y20317D02*
X247157Y20004D01*
X246532Y19691*
X245594*
X244970Y20004*
X244657Y20317*
X244344Y20941*
Y22191*
X244657Y22817*
X244970Y23129*
X245594Y23441*
X246532*
X247157Y23129*
X247470Y22817*
X249344Y20629D02*
X249657Y21254D01*
X250282Y21567*
X250907*
X251532Y21254*
X251844Y20629*
X251532Y20004*
X250907Y19691*
X250282*
X249657Y20004*
X249344Y20629*
Y21567*
X249657Y22504*
X250282Y23129*
X250907Y23441*
X247568Y14509D02*
X247256Y14197D01*
X246630Y13884*
X245693*
X245068Y14197*
X244756Y14509*
X244443Y15134*
Y16384*
X244756Y17009*
X245068Y17322*
X245693Y17634*
X246630*
X247256Y17322*
X247568Y17009*
X249443Y13884D02*
X251943Y17634D01*
X249443*
X247297Y125410D02*
Y122598D01*
X247610Y121972*
X248235Y121660*
X249485*
X250110Y121972*
X250422Y122598*
Y125410*
X254797Y121660D02*
X252297D01*
X254485Y123848*
X254797Y124472*
X254485Y125098*
X253860Y125410*
X252922*
X252297Y125098*
X259773Y49352D02*
X259460Y49039D01*
X258835Y48727*
X257898*
X257273Y49039*
X256960Y49352*
X256648Y49977*
Y51227*
X256960Y51852*
X257273Y52165*
X257898Y52477*
X258835*
X259460Y52165*
X259773Y51852*
X261648Y49039D02*
X262273Y48727D01*
X263210*
X263835Y49039*
X264148Y49665*
Y49977*
X263835Y50602*
X263210Y50915*
X261648*
Y52477*
X264148*
X311620Y92474D02*
X315370Y90912D01*
X311620Y89349*
X313183Y91849D02*
Y89974D01*
X311620Y87474D02*
X315370D01*
X311620Y84349*
X315370*
X311620Y80912D02*
X315370D01*
Y82474D02*
Y79349D01*
X311620Y76849D02*
Y75599D01*
Y76224D02*
X315370D01*
X314746Y76849*
D02*
D12*
X123577Y45526D02*
X140112D01*
X123577Y65211D02*
X140112D01*
X123577Y116234D02*
Y108518D01*
X159010*
Y116234*
X123577Y136234D02*
Y143951D01*
X159010*
Y136234*
X287061Y147474D02*
X340998D01*
Y37474*
X287061*
D02*
D13*
X75817Y16743D02*
G75*
G02Y15411J-666D01*
G01*
Y16743D02*
G75*
G02Y15411J-666D01*
G01*
G75*
G02Y16743J666*
G01*
X76140Y16159D02*
G75*
G02Y15994J-83D01*
G01*
Y16159D02*
G75*
G02Y15994J-83D01*
G01*
G75*
G02Y16159J83*
G01*
X218065Y28695D02*
G75*
G02Y27120J-787D01*
G01*
Y28695D02*
G75*
G02Y27120J-787D01*
G01*
G75*
G02Y28695J787*
G01*
D02*
D14*
X165415Y86376D02*
G75*
G02X166400I492D01*
G01*
X165415D02*
G75*
G02X166400I492D01*
G01*
G75*
G02X165415I-492*
G01*
X175998Y41589D02*
G75*
G02X176982I492D01*
G01*
X175998D02*
G75*
G02X176982I492D01*
G01*
G75*
G02X175998I-492*
G01*
D02*
D15*
X109444Y31468D02*
Y36768D01*
X121744*
Y31468*
X109444*
X133328Y93998D02*
X138628D01*
Y81698*
X133328*
Y93998*
X141301Y97345D02*
X146601D01*
Y85045*
X141301*
Y97345*
X146714Y37896D02*
X152014D01*
Y25596*
X146714*
Y37896*
X155416Y80459D02*
Y75159D01*
X143116*
Y80459*
X155416*
X160734Y74076D02*
Y79376D01*
X173034*
Y74076*
X160734*
X161321Y50144D02*
Y44844D01*
X149021*
Y50144*
X161321*
X168139Y31691D02*
Y36991D01*
X180439*
Y31691*
X168139*
X181502Y48289D02*
Y53589D01*
X193802*
Y48289*
X181502*
X191341Y44077D02*
Y38777D01*
X179041*
Y44077*
X191341*
X194395Y128801D02*
Y134101D01*
X206695*
Y128801*
X194395*
X208530Y147297D02*
X270734D01*
Y81156*
X208530*
Y112750*
X210006*
Y115703*
X208530*
Y147297*
X214868Y12954D02*
Y18254D01*
X227168*
Y12954*
X214868*
Y19057D02*
Y24357D01*
X227168*
Y19057*
X214868*
X230517Y13053D02*
Y18353D01*
X242817*
Y13053*
X230517*
Y19057D02*
Y24357D01*
X242817*
Y19057*
X230517*
X260479Y54730D02*
X255179D01*
Y67030*
X260479*
Y54730*
D02*
D16*
X200439Y29927D02*
X195139D01*
Y42227*
X200439*
Y29927*
X207920Y33470D02*
X202620D01*
Y45770*
X207920*
Y33470*
D02*
D17*
X170939Y57455D02*
X210939D01*
Y67455*
X170939*
Y57455*
X0Y0D02*
M02*
